<?xml version="1.0" encoding="UTF-8" standalone="no"?>
<!-- Created with Inkscape (http://www.inkscape.org/) -->

<svg
   xmlns:dc="http://purl.org/dc/elements/1.1/"
   xmlns:cc="http://creativecommons.org/ns#"
   xmlns:rdf="http://www.w3.org/1999/02/22-rdf-syntax-ns#"
   xmlns:svg="http://www.w3.org/2000/svg"
   xmlns="http://www.w3.org/2000/svg"
   xmlns:sodipodi="http://sodipodi.sourceforge.net/DTD/sodipodi-0.dtd"
   xmlns:inkscape="http://www.inkscape.org/namespaces/inkscape"
   width="200"
   height="200"
   viewBox="0 0 200 200"
   id="svg6715"
   version="1.1"
   inkscape:version="0.91 r13725"
   sodipodi:docname="image3svg.svg">
  <defs
     id="defs6717" />
  <sodipodi:namedview
     id="base"
     pagecolor="#ffffff"
     bordercolor="#666666"
     borderopacity="1.0"
     inkscape:pageopacity="0"
     inkscape:pageshadow="2"
     inkscape:zoom="1.4"
     inkscape:cx="61.192978"
     inkscape:cy="114.99561"
     inkscape:document-units="px"
     inkscape:current-layer="g3590"
     showgrid="false"
     units="px"
     width="200px"
     inkscape:window-width="1333"
     inkscape:window-height="744"
     inkscape:window-x="33"
     inkscape:window-y="24"
     inkscape:window-maximized="1" />
  <metadata
     id="metadata6720">
    <rdf:RDF>
      <cc:Work
         rdf:about="">
        <dc:format>image/svg+xml</dc:format>
        <dc:type
           rdf:resource="http://purl.org/dc/dcmitype/StillImage" />
        <dc:title></dc:title>
      </cc:Work>
    </rdf:RDF>
  </metadata>
  <g
     inkscape:label="Capa 1"
     inkscape:groupmode="layer"
     id="layer1"
     transform="translate(0,-852.3622)">
    <g
       id="g3590"
       transform="matrix(1.6377686,0,0,1.6377686,-119.04184,-670.28621)">
      <g
         id="g3669"
         transform="matrix(1.0271907,0,0,1.0271907,-144.90199,-31.469957)">
        <g
           id="g5550"
           transform="translate(-21.274278,2.8638451)">
          <path
             inkscape:connector-curvature="0"
             id="path250"
             style="fill:#f8a47e;fill-opacity:1;fill-rule:nonzero;stroke:none"
             d="m 263.39706,1003.7592 -4.26413,1.5272 -4.71696,-4.2227 c 0,0 1.66037,-0.7185 1.43935,-2.06624 -0.22642,-1.3477 -0.99191,-1.5278 -1.66577,-1.213 0,0 -0.5822,-1.8867 -3.32613,-0.9434 -2.73745,0.9434 -2.73745,3.99794 -1.65929,4.71704 1.07709,0.7186 2.24689,1.1677 2.92074,1.0329 l 6.73852,4.8517 c 0,0 5.92989,-1.5719 6.06466,-1.5719 0.13477,0 -1.53099,-2.1116 -1.53099,-2.1116" />
          <path
             inkscape:connector-curvature="0"
             id="path252"
             style="fill:#306b90;fill-opacity:1;fill-rule:nonzero;stroke:none"
             d="m 261.8499,1015.5742 c 0,0 -9.14282,2.9035 -18.39615,2.8889 l -0.52399,8.0065 25.44841,-3.3482 12.36113,21.4732 6.46898,-5.84 c 0,0 -8.35576,-10.8268 -10.33419,-16.2397 0,0 -3.49864,-7.1207 -7.18595,-7.4798 -3.68193,-0.3596 -7.83824,0.5391 -7.83824,0.5391" />
          <path
             inkscape:connector-curvature="0"
             id="path254"
             style="fill:#50ace4;fill-opacity:1;fill-rule:nonzero;stroke:none"
             d="m 288.39964,1001.4233 c 0,0 1.14286,4.6496 -1.48247,11.0512 -2.62532,6.4016 -7.50401,6.4016 -9.95144,5.6604 -2.44743,-0.7413 -1.43934,-6.0647 -1.43934,-6.0647 0,0 4.87868,-9.104 5.3369,-9.3024 0.46361,-0.1989 0.30189,-0.064 1.12129,-0.3337 0.82479,-0.2695 3.45012,-0.4248 3.45012,-0.4248 l 2.96494,-0.586" />
          <path
             inkscape:connector-curvature="0"
             id="path256"
             style="fill:#f8a47e;fill-opacity:1;fill-rule:nonzero;stroke:none"
             d="m 288.73388,996.52626 15.99453,-12.6684 c 0,0 -0.49056,-3.6609 0.78706,-4.9412 1.27762,-1.2803 1.95687,0 1.95687,0 0,0 2.49055,-3.5714 4.98111,-0.876 2.49594,2.6954 2.02694,5.3234 0,7.0754 -2.01617,1.752 -4.51211,1.4944 -5.39082,1.3536 l -16.7762,12.9429 -1.55255,-2.8863" />
          <path
             inkscape:connector-curvature="0"
             id="path258"
             style="fill:#d25f3a;fill-opacity:1;fill-rule:nonzero;stroke:none"
             d="m 307.47234,978.91666 c 0,0 0.73854,1.5159 0.43665,2.8636 -0.30188,1.3477 -0.97573,1.3816 -1.51482,0.7752 -0.53908,-0.6065 -0.37196,-1.9208 -0.37196,-1.9208 0,0 -0.60916,1.5499 0.19946,2.5607 0.80862,1.0108 2.42047,0.5035 2.62532,-0.8598 0.19946,-1.3639 -0.56064,-3.6108 -0.81401,-4.0707 l -0.56064,0.6518" />
          <path
             inkscape:connector-curvature="0"
             id="path260"
             style="fill:#f14625;fill-opacity:1;fill-rule:nonzero;stroke:none"
             d="m 289.40773,994.08856 c 0,0 3.64419,2.2808 4.11319,6.59354 0,0 -8.94336,2.4933 -10.90562,5.3234 0,0 -5.33151,12.4663 -5.74121,16.5094 0,0 -6.05927,-6.2668 -15.02419,-6.9407 0,0 4.85173,-2.8302 6.19943,-8.4231 0,0 -5.72504,0.539 -6.66843,-4.9865 0,0 7.67651,-2.42594 8.95953,-4.64964 1.28301,-2.2237 13.88134,-1.752 14.22096,-1.9542 0.33423,-0.2021 4.84634,-1.4722 4.84634,-1.4722" />
          <path
             inkscape:connector-curvature="0"
             id="path262"
             style="fill:#561c14;fill-opacity:1;fill-rule:nonzero;stroke:none"
             d="m 298.97642,984.93606 3.23448,-4.4922 c 0,0 0.63073,-10.6916 -5.47706,-16.352 -6.10779,-5.6603 -18.68994,-9.0749 -21.11581,-16.8015 0,0 -2.60376,2.42587 -0.62533,6.0199 0,0 -5.03502,-0.8986 -3.77896,-7.63714 0,0 -12.39348,11.68024 -6.73852,24.07914 l 0.27493,7.3671 c 0,0 1.25606,2.8755 1.5256,2.8755 0.26954,0 7.72504,1.2576 8.71695,0.8086 0.98651,-0.4496 6.10779,-0.9887 6.46897,-0.8086 0.35579,0.1795 10.42044,8.3557 10.68998,8.2657 0.26954,-0.09 6.82477,-3.3245 6.82477,-3.3245" />
          <path
             inkscape:connector-curvature="0"
             id="path264"
             style="fill:#aec4ab;fill-opacity:1;fill-rule:nonzero;stroke:none"
             d="m 289.80126,1036.3892 c 0,0 -10.12395,-0.9246 -9.76815,6.7962 0,0 3.97302,-2.5412 4.25335,-2.6145 0.28032,-0.073 3.06737,-2.0837 3.56332,-2.4411 0.49057,-0.3579 1.95148,-1.7406 1.95148,-1.7406" />
          <path
             inkscape:connector-curvature="0"
             id="path266"
             style="fill:#718390;fill-opacity:1;fill-rule:nonzero;stroke:none"
             d="m 288.23253,1044.5014 c -3.27761,2.0316 -6.81938,2.2413 -7.92449,0.4672 -1.09973,-1.7741 0.66307,-4.8593 3.93529,-6.8909 3.27222,-2.0324 6.81938,-2.2417 7.9191,-0.4675 1.10512,1.7741 -0.65768,4.8586 -3.9299,6.8912" />
          <path
             inkscape:connector-curvature="0"
             id="path268"
             style="fill:#aec4ab;fill-opacity:1;fill-rule:nonzero;stroke:none"
             d="m 242.83381,1014.571 c 0,0 6.60428,7.7282 0.096,11.8986 0,0 -0.21833,-4.7084 -0.3213,-4.9801 -0.1035,-0.2711 -0.0744,-3.7099 -0.0668,-4.3185 0.007,-0.6092 0.29219,-2.6 0.29219,-2.6" />
          <path
             inkscape:connector-curvature="0"
             id="path270"
             style="fill:#718390;fill-opacity:1;fill-rule:nonzero;stroke:none"
             d="m 237.12062,1020.5408 c 0.23289,3.8452 2.11104,6.8609 4.19513,6.7347 2.08463,-0.1267 3.58544,-3.3461 3.35201,-7.1919 -0.23342,-3.8463 -2.11158,-6.8614 -4.19567,-6.7353 -2.08355,0.1262 -3.58489,3.3466 -3.35147,7.1925" />
          <path
             inkscape:connector-curvature="0"
             id="path272"
             style="fill:#f8a47e;fill-opacity:1;fill-rule:nonzero;stroke:none"
             d="m 266.81484,966.24816 c 0,0 -8.08622,5.6604 -6.46898,18.2388 1.61724,12.5784 10.06465,14.6452 16.52823,14.9148 6.46897,0.2695 15.00802,-4.4927 16.8948,-8.6253 0,0 4.04311,-1.0782 5.29917,-3.2345 1.26145,-2.1563 0.90027,-5.5709 -0.63072,-5.9299 -1.5256,-0.3596 -4.04311,0.8086 -5.02963,2.5154 l -1.7035,-2.6954 c 0,0 1.8814,-6.0194 0.44744,-9.9731 0,0 -11.14281,-9.1644 -25.33681,-5.2108" />
          <path
             inkscape:connector-curvature="0"
             id="path274"
             style="fill:#d25f3a;fill-opacity:1;fill-rule:nonzero;stroke:none"
             d="m 268.34043,991.37206 c 0,0 2.15633,2.5936 5.88677,2.0097 0,0 -3.19136,2.5402 -5.88677,-2.0097" />
          <path
             inkscape:connector-curvature="0"
             id="path276"
             style="fill:#3b1718;fill-opacity:1;fill-rule:nonzero;stroke:none"
             d="m 272.8795,985.96946 c -2.6415,-0.4216 -4.1078,-1.2048 -4.91642,-1.8895 0.24258,1.862 0.19946,4.1811 0.19946,4.1811 0.0647,0.1601 0.18868,0.3412 0.36118,0.5321 1.12129,-0.062 3.45012,-0.085 5.50941,0.5466 0.98652,-1.256 3.52559,-1.7245 4.94877,-1.8905 0.32345,-1.0313 0.50134,-2.1175 0.59299,-3.0723 -1.24528,0.9925 -3.42856,2.1143 -6.69539,1.5925" />
          <path
             inkscape:connector-curvature="0"
             id="path278"
             style="fill:#ffffff;fill-opacity:1;fill-rule:nonzero;stroke:none"
             d="m 279.57489,984.37696 c 0.15633,-1.587 0.0863,-2.8102 0.0863,-2.8102 -0.13477,0.7192 -1.02965,1.8868 -4.44742,0.9887 -3.41238,-0.8987 -7.76816,-0.4496 -7.76816,-0.4496 0.24798,0.4022 0.4097,1.1429 0.51752,1.9741 0.80862,0.6847 2.27492,1.4679 4.91642,1.8895 3.26683,0.5218 5.45011,-0.6 6.69539,-1.5925" />
          <path
             inkscape:connector-curvature="0"
             id="path280"
             style="fill:#ffffff;fill-opacity:1;fill-rule:nonzero;stroke:none"
             d="m 274.13017,991.35376 c -0.42588,-0.3735 -0.63073,-0.8722 -0.38275,-1.5207 0.0701,-0.1774 0.16711,-0.3402 0.28571,-0.4933 -2.05929,-0.6318 -4.38812,-0.6081 -5.50941,-0.5466 0.94339,1.0372 3.36387,2.3924 5.60645,2.5606" />
          <path
             inkscape:connector-curvature="0"
             id="path282"
             style="fill:#cf2626;fill-opacity:1;fill-rule:nonzero;stroke:none"
             d="m 274.03313,989.33976 c 1.02426,0.3127 1.97843,0.786 2.69541,1.4938 0.19407,-0.117 0.37735,-0.255 0.55525,-0.4167 0.80323,-0.752 1.33692,-1.8264 1.69811,-2.9676 -1.42318,0.166 -3.96225,0.6345 -4.94877,1.8905" />
          <path
             inkscape:connector-curvature="0"
             id="path284"
             style="fill:#ffffff;fill-opacity:1;fill-rule:nonzero;stroke:none"
             d="m 274.13017,991.35376 c 0.938,0.07 1.84365,-0.066 2.59837,-0.5202 -0.71698,-0.7078 -1.67115,-1.1811 -2.69541,-1.4938 -0.1186,0.1531 -0.21563,0.3159 -0.28571,0.4933 -0.24798,0.6485 -0.0431,1.1472 0.38275,1.5207" />
          <path
             inkscape:connector-curvature="0"
             id="path286"
             style="fill:#311a13;fill-opacity:1;fill-rule:nonzero;stroke:none"
             d="m 280.36194,975.51076 c 0.66847,-0.8922 1.60647,-1.3181 2.09703,-0.951 0.49596,0.3671 0.35579,1.3887 -0.30728,2.2809 -0.66846,0.8927 -1.60646,1.3186 -2.09702,0.9515 -0.49596,-0.3672 -0.3558,-1.3882 0.30727,-2.2814" />
          <path
             inkscape:connector-curvature="0"
             id="path288"
             style="fill:#311a13;fill-opacity:1;fill-rule:nonzero;stroke:none"
             d="m 268.04933,972.27626 c 0.66307,-0.8922 1.60107,-1.3181 2.09703,-0.9509 0.49056,0.367 0.3504,1.3886 -0.31267,2.2808 -0.66307,0.8927 -1.60107,1.3186 -2.09703,0.9515 -0.49056,-0.3671 -0.3504,-1.3882 0.31267,-2.2814" />
          <path
             inkscape:connector-curvature="0"
             id="path290"
             style="fill:#d25f3a;fill-opacity:1;fill-rule:nonzero;stroke:none"
             d="m 271.57492,975.59216 c 0,0 -3.81669,-0.3596 -3.45551,3.8636 0,0 -2.87869,-6.1547 3.45551,-3.8636" />
          <path
             inkscape:connector-curvature="0"
             id="path292"
             style="fill:#561c14;fill-opacity:1;fill-rule:nonzero;stroke:none"
             d="m 279.67731,970.42616 c 0,0 5.77895,-2.7855 7.12665,2.5153 l 1.12668,-1.6232 c 0,0 -1.73584,-4.8398 -8.17247,-1.6054 l -0.0809,0.7133" />
          <path
             inkscape:connector-curvature="0"
             id="path294"
             style="fill:#561c14;fill-opacity:1;fill-rule:nonzero;stroke:none"
             d="m 271.30538,969.34796 c 0,0 -0.13477,-1.3477 -1.16441,-1.2803 -1.03504,0.067 -1.95687,1.1676 -1.95687,1.1676 l 0,-1.0555 c 0,0 0.85175,-0.9208 2.17789,-0.786 1.32614,0.1348 1.41778,1.7742 1.41778,1.7742 l -0.47439,0.18" />
          <path
             inkscape:connector-curvature="0"
             id="path296"
             style="fill:#50ace4;fill-opacity:1;fill-rule:nonzero;stroke:none"
             d="m 278.6261,999.41256 c 0,0 -2.84635,8.11474 2.21024,10.92014 l 0.8194,-2.0307 c 0,0 -2.53368,-0.6102 -1.36388,-9.16924 l -1.66576,0.2798" />
          <path
             inkscape:connector-curvature="0"
             id="path298"
             style="fill:#50ace4;fill-opacity:1;fill-rule:nonzero;stroke:none"
             d="m 269.28922,998.58606 c 0,0 -1.30458,4.90354 -0.94879,8.36284 0,0 -1.46091,-4.1002 -0.60916,-7.39034 l 1.55795,-0.9725" />
          <path
             inkscape:connector-curvature="0"
             id="path300"
             style="fill:#f8a47e;fill-opacity:1;fill-rule:nonzero;stroke:none"
             d="m 273.55874,998.58606 c 0,0 -0.27493,1.55694 1.00269,1.69174 1.28301,0.1347 1.75202,-1.06904 1.68733,-1.69174 -0.0701,-0.6221 -2.69002,0 -2.69002,0" />
          <path
             inkscape:connector-curvature="0"
             id="path302"
             style="fill:#d25f3a;fill-opacity:1;fill-rule:nonzero;stroke:none"
             d="m 254.18955,997.78446 c 0,0 -1.61724,0.6065 -1.68193,1.3251 -0.0701,0.7186 0.85175,0.7186 1.14285,0.6064 0,0 -1.19137,0.65134 -1.79514,0.2696 -0.60916,-0.3817 -0.0916,-2.4091 2.0539,-2.6873 l 0.28032,0.4862" />
          <path
             inkscape:connector-curvature="0"
             id="path356"
             style="fill:#2b1412;fill-opacity:1;fill-rule:nonzero;stroke:none"
             d="m 292.97105,970.77006 c 0,0 -8.51748,-6.3768 -19.31527,-6.3768 -2.15633,0 -4.4043,0.2544 -6.69539,0.8652 l -2.49056,2.1213 c 0,0 -2.76548,-6.9434 2.15633,-14.0533 0,0 3.09971,7.6474 8.55521,8.9946 5.4609,1.3482 14.98107,1.2803 17.78968,8.449" />
          <path
             inkscape:connector-curvature="0"
             id="path358"
             style="fill:#2b1412;fill-opacity:1;fill-rule:nonzero;stroke:none"
             d="m 293.52092,983.41256 -1.26684,-2.1558 c 0.49595,-1.3029 1.07816,-5.9751 1.07816,-5.9751 2.51751,3.1892 8.31263,4.7132 8.31263,4.7132 l -1.81131,2.8792 c -0.47979,-1.3865 -1.26145,-1.8658 -2.11859,-1.8658 -1.91374,0 -4.19405,2.4043 -4.19405,2.4043" />
          <path
             inkscape:connector-curvature="0"
             id="path360"
             style="fill:#f5754f;fill-opacity:1;fill-rule:nonzero;stroke:none"
             d="m 294.00609,988.53436 c 0,0 0.22641,-3.5153 1.61724,-4.7002 0.49596,-0.42 0.99191,-0.5558 1.43396,-0.5558 0.79784,0 1.39622,0.4496 1.39622,0.4496 0,0 -2.68463,0.352 -2.56064,3.9078 l -1.88678,0.8986" />
          <path
             inkscape:connector-curvature="0"
             id="path362"
             style="fill:#f5754f;fill-opacity:1;fill-rule:nonzero;stroke:none"
             d="m 277.19754,998.83896 c -0.32884,0 -0.6469,-0.01 -0.94878,-0.021 0.005,-0.083 0.005,-0.1612 0,-0.2318 -0.0216,-0.2075 -0.32884,-0.2765 -0.72776,-0.2765 -0.60917,0 -1.42857,0.1612 -1.78436,0.2377 -0.70081,-0.1229 -1.09973,-0.2377 -1.09973,-0.2377 13.54172,-0.064 19.26137,-8.2506 19.26137,-8.2506 6.05388,-0.6243 7.41776,-4.1526 7.41776,-4.1526 -0.51752,3.0323 -6.34499,4.9272 -6.34499,4.9272 -5.01884,6.7019 -11.49321,8.0059 -15.77351,8.0054" />
          <path
             inkscape:connector-curvature="0"
             id="path364"
             style="fill:#f5754f;fill-opacity:1;fill-rule:nonzero;stroke:none"
             d="m 276.24876,998.81786 c -1.02965,-0.047 -1.89218,-0.1617 -2.51212,-0.2706 0.35579,-0.076 1.17519,-0.2377 1.78436,-0.2377 0.39892,0 0.70619,0.069 0.72776,0.2765 0.005,0.071 0.005,0.1488 0,0.2318" />
          <path
             inkscape:connector-curvature="0"
             id="path366"
             style="fill:#e72723;fill-opacity:1;fill-rule:nonzero;stroke:none"
             d="m 277.89295,1000.9285 c -2.26953,0 -4.73852,-0.5709 -7.29377,-2.08904 0,0 1.14286,0.5429 3.10511,0.8819 0.14016,0.2771 0.39892,0.50794 0.85714,0.55644 0.0701,0.01 0.13477,0.01 0.19407,0.01 0.39892,0 0.7062,-0.1348 0.938,-0.33534 0.37197,0.023 0.76011,0.035 1.16981,0.035 0.51213,0 1.04582,-0.02 1.60646,-0.066 -0.0701,0.25554 -0.16172,0.59734 -0.25337,1.00274 -0.10781,0 -0.21563,0 -0.32345,0 m 2.21024,-0.1785 c 0.0323,-0.3342 0.0701,-0.684 0.1132,-1.04854 2.82479,-0.4808 6.10779,-1.642 9.60643,-4.035 0,0 -3.9892,4.1633 -9.71963,5.08354" />
          <path
             inkscape:connector-curvature="0"
             id="path368"
             style="fill:#3e7bc7;fill-opacity:1;fill-rule:nonzero;stroke:none"
             d="m 278.2164,1000.9247 c 0.0916,-0.4054 0.18329,-0.7472 0.25337,-1.00274 0.56064,-0.046 1.14285,-0.1181 1.74662,-0.2205 -0.0431,0.36444 -0.0809,0.71434 -0.1132,1.04854 -0.60917,0.098 -1.23989,0.1591 -1.88679,0.1747" />
          <path
             inkscape:connector-curvature="0"
             id="path370"
             style="fill:#f5754f;fill-opacity:1;fill-rule:nonzero;stroke:none"
             d="m 274.7555,1000.288 c -0.0593,0 -0.12399,0 -0.19407,-0.01 -0.45822,-0.049 -0.71698,-0.27934 -0.85714,-0.55644 0.5876,0.1025 1.25606,0.1866 1.98921,0.2313 -0.2318,0.20054 -0.53908,0.33534 -0.938,0.33534" />
          <path
             inkscape:connector-curvature="0"
             id="path372"
             style="fill:#e72723;fill-opacity:1;fill-rule:nonzero;stroke:none"
             d="m 268.06011,1006.9489 c -3.95146,-4e-4 -5.17518,-2.2167 -5.17518,-2.2167 l 0,-0.1498 c 0.50135,0.1654 0.98652,0.2355 1.45552,0.2355 1.2938,-4e-4 2.43126,-0.5358 3.25605,-1.0803 0.16173,1.1844 0.43127,2.1903 0.59838,2.7466 -0.0701,0.2868 -0.1132,0.4647 -0.1132,0.4647 -0.0108,0 -0.0162,0 -0.0216,0 m 0.22642,-0.8566 c -0.0324,-0.9725 0.0431,-2.0108 0.15633,-2.9957 0.33962,-0.2889 0.52291,-0.497 0.52291,-0.497 -0.0647,0.7994 -0.44205,2.4706 -0.67924,3.4927" />
          <path
             inkscape:connector-curvature="0"
             id="path374"
             style="fill:#3e7bc7;fill-opacity:1;fill-rule:nonzero;stroke:none"
             d="m 268.19488,1006.4842 c -0.16711,-0.5563 -0.43665,-1.5622 -0.59838,-2.7466 0.33962,-0.2243 0.62534,-0.4501 0.84636,-0.641 -0.11321,0.9849 -0.18868,2.0232 -0.15633,2.9957 -0.0324,0.145 -0.0647,0.2771 -0.0917,0.3919" />
          <path
             inkscape:connector-curvature="0"
             id="path376"
             style="fill:#e72723;fill-opacity:1;fill-rule:nonzero;stroke:none"
             d="m 282.6153,1005.605 c 0,0 1.91374,-4.1817 7.84363,-6.51434 1.68733,-0.6636 1.02965,-2.2911 1.02965,-2.2911 0,0 1.03504,0.6421 1.70889,3.48844 0,0 -7.36385,1.7467 -10.58217,5.317" />
          <path
             inkscape:connector-curvature="0"
             id="path378"
             style="fill:#e72723;fill-opacity:1;fill-rule:nonzero;stroke:none"
             d="m 276.50751,1021.2831 -2.73853,-1.9542 c 0,0 3.16441,-5.9207 5.84903,-9.9099 0.22642,0.2248 0.47439,0.435 0.75472,0.6269 -1.60647,3.7488 -3.83826,9.2981 -3.86522,11.2372 m 4.73853,-13.2409 c -0.10782,-0.098 -0.22642,-0.2308 -0.34501,-0.4114 0.39353,-0.5105 0.7601,-0.9347 1.08355,-1.2393 0,0 -0.2911,0.6356 -0.73854,1.6507" />
          <path
             inkscape:connector-curvature="0"
             id="path380"
             style="fill:#3e7bc7;fill-opacity:1;fill-rule:nonzero;stroke:none"
             d="m 280.37273,1010.0459 c -0.28033,-0.1919 -0.5283,-0.4021 -0.75472,-0.6269 0.44744,-0.6609 0.8787,-1.269 1.28302,-1.7882 0.11859,0.1806 0.23719,0.3133 0.34501,0.4114 -0.24798,0.5649 -0.54987,1.2479 -0.87331,2.0037" />
          <path
             inkscape:connector-curvature="0"
             id="path382"
             style="fill:#1b3a5a;fill-opacity:1;fill-rule:nonzero;stroke:none"
             d="m 279.81208,1041.9477 -10.87327,-18.9121 0.9434,0 11.18593,15.7229 c -1.3477,1.5719 -1.25606,3.1892 -1.25606,3.1892" />
          <path
             inkscape:connector-curvature="0"
             id="path384"
             style="fill:#1b3a5a;fill-opacity:1;fill-rule:nonzero;stroke:none"
             d="m 244.1648,1026 c 0,0 1.59299,-1.662 1.81832,-2.6048 0,0 20.4867,-1.0334 20.4867,-1.1234 0,-0.01 0.005,-0.01 0.0216,-0.01 0.21024,0 1.68193,0.5035 1.68193,0.5035 l -24.00852,3.2345" />
          <path
             inkscape:connector-curvature="0"
             id="path386"
             style="fill:#f5754f;fill-opacity:1;fill-rule:nonzero;stroke:none"
             d="m 292.70151,997.20446 -0.44743,-1.3483 14.28565,-10.2425 0.36118,0.4879 -14.1994,11.1029" />
          <path
             inkscape:connector-curvature="0"
             id="path388"
             style="fill:#f5754f;fill-opacity:1;fill-rule:nonzero;stroke:none"
             d="m 258.94425,1007.2675 -5.5741,-4.2232 5.5741,3.9046 3.61723,-1.4108 0.87332,0.5607 -4.49055,1.1687" />
        </g>
      </g>
    </g>
  </g>
</svg>
