<?xml version="1.0" encoding="UTF-8" standalone="no"?>
<!-- Created with Inkscape (http://www.inkscape.org/) -->

<svg
   xmlns:dc="http://purl.org/dc/elements/1.1/"
   xmlns:cc="http://creativecommons.org/ns#"
   xmlns:rdf="http://www.w3.org/1999/02/22-rdf-syntax-ns#"
   xmlns:svg="http://www.w3.org/2000/svg"
   xmlns="http://www.w3.org/2000/svg"
   xmlns:sodipodi="http://sodipodi.sourceforge.net/DTD/sodipodi-0.dtd"
   xmlns:inkscape="http://www.inkscape.org/namespaces/inkscape"
   width="200"
   height="200"
   viewBox="0 0 200 200"
   id="svg6715"
   version="1.1"
   inkscape:version="0.91 r13725"
   sodipodi:docname="image1.svg">
  <defs
     id="defs6717" />
  <sodipodi:namedview
     id="base"
     pagecolor="#ffffff"
     bordercolor="#666666"
     borderopacity="1.0"
     inkscape:pageopacity="0"
     inkscape:pageshadow="2"
     inkscape:zoom="1.4"
     inkscape:cx="61.192978"
     inkscape:cy="114.99561"
     inkscape:document-units="px"
     inkscape:current-layer="layer1"
     showgrid="false"
     units="px"
     width="200px"
     inkscape:window-width="1333"
     inkscape:window-height="744"
     inkscape:window-x="33"
     inkscape:window-y="24"
     inkscape:window-maximized="1" />
  <metadata
     id="metadata6720">
    <rdf:RDF>
      <cc:Work
         rdf:about="">
        <dc:format>image/svg+xml</dc:format>
        <dc:type
           rdf:resource="http://purl.org/dc/dcmitype/StillImage" />
        <dc:title></dc:title>
      </cc:Work>
    </rdf:RDF>
  </metadata>
  <g
     inkscape:label="Capa 1"
     inkscape:groupmode="layer"
     id="layer1"
     transform="translate(0,-852.3622)">
    <g
       id="g3622"
       transform="matrix(1.5275313,0,0,1.5275313,-162.0161,-559.31631)">
      <path
         d="m 215.16844,1035.3087 c -2.06469,-1.0247 -5.96871,-3.3234 -8.51048,-7.0587 l -2.75309,1.8836 c 0,0 4.89594,5.5708 10.38432,8.1207 0.87278,-0.8108 0.931,-2.1736 0.87925,-2.9456"
         style="fill:#3d5c6e;fill-opacity:1;fill-rule:nonzero;stroke:none"
         id="path152"
         inkscape:connector-curvature="0" />
      <path
         d="m 218.39591,1035.7923 -1.63988,0.1315 c 0.5876,0.6761 0.97843,1.8728 0.29326,2.6124 -0.469,0.5068 -0.9283,0.6351 -1.26361,0.6453 0.81456,0.7111 2.12722,1.9984 2.81347,3.4345 1.03989,2.1752 4.57895,0.2609 3.81777,-2.4485 -0.76064,-2.7089 -4.02101,-4.3752 -4.02101,-4.3752"
         style="fill:#aec4ab;fill-opacity:1;fill-rule:nonzero;stroke:none"
         id="path154"
         inkscape:connector-curvature="0" />
      <path
         d="m 217.04929,1038.5362 c 0.68517,-0.7396 0.29434,-1.9363 -0.29326,-2.6124 l -0.19461,0.015 c 0,0 -0.5407,-0.2075 -1.39298,-0.6302 0.0517,0.772 -0.006,2.1348 -0.87925,2.9456 0.262,0.1213 0.52399,0.2382 0.78706,0.345 0,0 0.29003,0.2162 0.70943,0.5822 0.33531,-0.01 0.79461,-0.1385 1.26361,-0.6453"
         style="fill:#fbc364;fill-opacity:1;fill-rule:nonzero;stroke:none"
         id="path156"
         inkscape:connector-curvature="0" />
      <path
         d="m 187.17557,1041.1831 c -1.01671,-2.069 -2.72128,-6.2668 -2.47115,-10.7778 l -3.33044,-0.1774 c 0,0 0.5035,7.3994 3.31427,12.7601 1.18544,-0.1132 2.05929,-1.1607 2.48732,-1.8049"
         style="fill:#3d5c6e;fill-opacity:1;fill-rule:nonzero;stroke:none"
         id="path158"
         inkscape:connector-curvature="0" />
      <path
         d="m 189.44564,1043.5276 -1.38221,-0.8922 c 0.0555,0.8943 -0.36172,2.0819 -1.35471,2.2534 -0.68032,0.1175 -1.12344,-0.06 -1.39622,-0.2556 0.21564,1.0604 0.47601,2.8798 0.14879,4.4378 -0.49595,2.3595 3.47761,2.9886 4.51912,0.3752 1.04258,-2.6146 -0.53477,-5.9186 -0.53477,-5.9186"
         style="fill:#aec4ab;fill-opacity:1;fill-rule:nonzero;stroke:none"
         id="path160"
         inkscape:connector-curvature="0" />
      <path
         d="m 186.70872,1044.8888 c 0.99299,-0.1715 1.41024,-1.3591 1.35471,-2.2534 l -0.16442,-0.1057 c 0,0 -0.3035,-0.4932 -0.72344,-1.3466 -0.42803,0.6442 -1.30188,1.6911 -2.48732,1.8049 0.13369,0.2549 0.27062,0.5072 0.41509,0.7525 0,0 0.0986,0.3472 0.20916,0.8927 0.27278,0.1957 0.7159,0.3731 1.39622,0.2556"
         style="fill:#fbc364;fill-opacity:1;fill-rule:nonzero;stroke:none"
         id="path162"
         inkscape:connector-curvature="0" />
      <path
         d="m 203.68978,946.14736 c 0,0 12.93795,0 12.93795,16.44197 0,16.44198 -6.06197,28.30174 -2.42425,35.04024 3.63718,6.73863 12.53202,3.41193 12.66679,-4.0215 0.13477,-7.4339 -3.23449,-7.1644 -4.58219,-6.4905 0,0 5.92989,-3.32454 8.22099,4.9412 2.29109,8.26633 -7.00806,20.12613 -20.48509,20.39563 -13.47703,0.2696 -26.9988,-5.7951 -26.9988,-5.7951 l -11.05116,1.3477 c 0,0 -17.07108,-17.11593 -11.41073,-46.42842 0,0 -1.24905,-17.00642 15.36381,-23.51744 17.99507,-7.05334 27.08883,6.60374 27.76268,8.08622"
         style="fill:#f14625;fill-opacity:1;fill-rule:nonzero;stroke:none"
         id="path164"
         inkscape:connector-curvature="0" />
      <path
         d="m 203.68978,988.24047 c 0,0 7.47382,12.12933 -1.76603,21.20373 -9.23985,9.0749 -23.34599,5.2113 -26.40096,3.8636 -3.05443,-1.3477 -10.78162,-12.1439 -4.40214,-26.73693 0,0 4.73745,0.7709 5.55847,0.7709 0.82048,0 27.01066,0.8987 27.01066,0.8987"
         style="fill:#36a884;fill-opacity:1;fill-rule:nonzero;stroke:none"
         id="path166"
         inkscape:connector-curvature="0" />
      <path
         d="m 208.20459,984.69167 11.59024,-11.95411 c 0,0 -2.45174,-1.5504 -1.95417,-3.14017 0.54609,-1.74499 2.69541,-0.0674 2.83018,1.44853 0,0 0.74123,-3.73963 2.35848,-4.95256 1.61724,-1.21293 2.58166,1.58761 0.29056,4.28302 0,0 3.3008,-3.17627 4.4264,-1.74123 0.96603,1.23178 -0.56119,2.87114 -3.32398,3.27545 0,0 3.00969,-0.65121 3.414,0.4496 0.44043,1.19835 -1.39244,2.08948 -3.21184,1.36978 0,0 2.63772,1.5752 1.5946,2.67333 -0.85337,0.89811 -2.85282,-1.06846 -2.98759,-1.75202 0,0 -0.26954,1.12289 -2.44527,1.23773 l -20.73522,20.93195 -0.47169,-3.9875 8.6253,-8.1418"
         style="fill:#fbc364;fill-opacity:1;fill-rule:nonzero;stroke:none"
         id="path168"
         inkscape:connector-curvature="0" />
      <path
         d="m 168.05382,984.85877 -11.59024,-11.95358 c 0,0 2.4512,-1.5504 1.95416,-3.14069 -0.54608,-1.74447 -2.6954,-0.0674 -2.83017,1.44905 0,0 -0.74124,-3.74014 -2.35848,-4.95308 -1.61725,-1.21293 -2.58166,1.58814 -0.29057,4.28354 0,0 -3.30079,-3.17678 -4.42639,-1.74175 -0.96604,1.23178 0.56118,2.87167 3.32397,3.27598 0,0 -3.00969,-0.65121 -3.414,0.44907 -0.44043,1.19892 1.39299,2.09 3.21239,1.37035 0,0 -2.63827,1.57519 -1.59514,2.67276 0.8539,0.89863 2.85281,-1.06794 2.98704,-1.75201 0,0 0.27008,1.12344 2.44581,1.23825 l 20.73522,20.93141 0.4717,-3.987 -8.6253,-8.1423"
         style="fill:#fbc364;fill-opacity:1;fill-rule:nonzero;stroke:none"
         id="path170"
         inkscape:connector-curvature="0" />
      <path
         d="m 173.77078,988.86577 c 0,0 0.13477,23.85823 2.15632,38.14383 0,0 7.00806,9.7035 23.65219,5.9299 16.64413,-3.7736 18.06568,-19.4069 15.73793,-23.5848 0,0 -3.40645,3.7736 -10.0102,0.8086 -6.60374,-2.9649 -3.09971,-19.00263 -3.09971,-19.00263 0,0 -8.49053,0.8533 -9.16438,0.8981 -0.67385,0.045 -11.72502,0.7747 -11.72502,0.7747 l -7.54713,-3.9677"
         style="fill:#552244;fill-opacity:1;fill-rule:nonzero;stroke:none"
         id="path172"
         inkscape:connector-curvature="0" />
      <path
         d="m 179.43113,993.60807 c 0,0 -0.66954,9.08083 -5.25389,11.16713 0,0 -0.41185,-11.93153 -0.40646,-13.61453 l 5.66035,2.4474"
         style="fill:#3ab88a;fill-opacity:1;fill-rule:nonzero;stroke:none"
         id="path174"
         inkscape:connector-curvature="0" />
      <path
         d="m 197.42296,994.12557 c 0,0 0.59784,7.33693 4.07276,9.29493 0,0 -0.46253,-5.77523 0.42803,-10.73583 l -4.50079,1.4409"
         style="fill:#3ab88a;fill-opacity:1;fill-rule:nonzero;stroke:none"
         id="path176"
         inkscape:connector-curvature="0" />
      <path
         d="m 164.06731,968.63515 c 0,0 0.67386,28.05102 24.46081,27.78152 23.78696,-0.2695 25.53897,-25.47158 25.67374,-29.64946 0.13477,-4.17788 -9.83823,-13.34226 -10.37731,-13.88134 -0.53908,-0.53908 -5.39081,-3.09972 -7.14282,-3.6388 -0.97359,-0.29973 -3.67977,-0.18329 -6.18542,-0.0668 -2.00538,0.0933 -3.88193,0.18652 -4.64095,0.0668 -1.70727,-0.26954 -5.61561,0.94339 -6.69377,2.02156 -1.07816,1.07816 -4.44742,2.83017 -5.39081,3.23448 -0.9434,0.40431 -9.70347,5.52559 -9.70347,5.52559 l 0,8.60645"
         style="fill:#fbc364;fill-opacity:1;fill-rule:nonzero;stroke:none"
         id="path178"
         inkscape:connector-curvature="0" />
      <path
         d="m 183.02518,970.63027 c 0,0 -0.89865,-4.26737 -3.77357,-5.07599 -2.87492,-0.80862 -4.85173,2.42586 -4.94175,4.49218 0,0 -1.16765,-0.0448 -2.33584,-0.80862 0,0 1.21293,2.15633 3.95308,2.60536 0,0 -0.0367,-4.40589 2.42587,-4.89645 2.46306,-0.49057 4.67221,3.68352 4.67221,3.68352"
         style="fill:#211d1d;fill-opacity:1;fill-rule:nonzero;stroke:none"
         id="path180"
         inkscape:connector-curvature="0" />
      <path
         d="m 195.24615,970.63027 c 0,0 0.89865,-4.26737 3.77357,-5.07599 2.87546,-0.80862 4.85173,2.42586 4.94176,4.49218 0,0 1.16819,-0.0448 2.33584,-0.80862 0,0 -1.21294,2.15633 -3.95309,2.60536 0,0 0.0372,-4.40589 -2.42586,-4.89645 -2.46306,-0.49057 -4.67222,3.68352 -4.67222,3.68352"
         style="fill:#211d1d;fill-opacity:1;fill-rule:nonzero;stroke:none"
         id="path182"
         inkscape:connector-curvature="0" />
      <path
         d="m 190.95399,971.04592 c 0,0 0.40431,1.04474 1.44905,1.24687 1.0442,0.20218 0.80862,1.68465 -1.2469,3.03236 0,0 2.5946,-0.45499 2.96495,-1.81943 0.37089,-1.36495 -0.29164,-1.81937 -1.28032,-1.93206 -0.87007,-0.0986 -1.41509,-0.15685 -1.88678,-0.52774"
         style="fill:#e09b3b;fill-opacity:1;fill-rule:nonzero;stroke:none"
         id="path184"
         inkscape:connector-curvature="0" />
      <path
         d="m 179.91414,982.77632 c 0.96442,2.27275 2.4911,4.76875 4.73314,6.22365 0.72937,-0.9671 2.08894,-2.3078 4.083,-2.4215 2.23826,-0.1283 3.8113,1.4695 4.53583,2.4038 2.33584,-1.4502 3.78704,-3.9122 4.67167,-6.15958 -2.14284,-0.70892 -9.05818,-2.52023 -18.02364,-0.0464"
         style="fill:#3b1718;fill-opacity:1;fill-rule:nonzero;stroke:none"
         id="path186"
         inkscape:connector-curvature="0" />
      <path
         d="m 196.74911,979.1898 c -1.54986,0.19247 -3.57141,-1.06846 -7.17625,-1.10189 -3.60537,-0.0341 -7.04202,0.84205 -8.9288,1.07817 -1.88678,0.2356 -2.08894,-1.34771 -2.08894,-1.34771 -0.0674,0.33803 0.32237,2.517 1.35902,4.95795 8.96546,-2.47386 15.8808,-0.66255 18.02364,0.0464 1.04528,-2.65552 1.30458,-5.00432 1.30458,-5.00432 0,0 -0.94339,1.179 -2.49325,1.37143"
         style="fill:#ffffff;fill-opacity:1;fill-rule:nonzero;stroke:none"
         id="path188"
         inkscape:connector-curvature="0" />
      <path
         d="m 188.73028,986.57847 c -1.99406,0.1137 -3.35363,1.4544 -4.083,2.4215 1.34932,0.8755 2.95578,1.3763 4.8582,1.2173 1.45821,-0.1224 2.69864,-0.5763 3.76063,-1.235 -0.72453,-0.9343 -2.29757,-2.5321 -4.53583,-2.4038"
         style="fill:#cf2626;fill-opacity:1;fill-rule:nonzero;stroke:none"
         id="path190"
         inkscape:connector-curvature="0" />
      <path
         d="m 191.20143,992.05877 c 0,0 -2.2911,1.1234 -5.34607,0 0,0 2.67007,3.4852 5.34607,0"
         style="fill:#e09b3b;fill-opacity:1;fill-rule:nonzero;stroke:none"
         id="path192"
         inkscape:connector-curvature="0" />
      <path
         d="m 215.14526,971.04592 c 0,0 -9.83824,0.30348 -15.22905,-15.86895 0,0 -9.43392,7.54713 -32.34487,6.06466 0,0 -3.13422,8.58217 -2.84742,12.78161 0,0 -2.27385,-4.71696 -2.27385,-9.42314 0,-4.70617 1.21293,-10.90561 1.61724,-11.30992 0.40432,-0.40431 16.71152,-7.68191 16.71152,-7.68191 0,0 14.28565,1.88679 15.76812,2.02156 1.48248,0.13477 8.85387,4.9865 9.75037,4.71696 0.89649,-0.26954 6.69161,3.90834 7.36546,4.85173 0.67385,0.94339 2.15633,11.52288 1.48248,13.8474"
         style="fill:#f14625;fill-opacity:1;fill-rule:nonzero;stroke:none"
         id="path194"
         inkscape:connector-curvature="0" />
      <path
         d="m 202.47685,958.20932 c 0,0 -4.1105,0.94339 -5.05389,3.36926 0,0 2.96495,-1.9542 6.26682,-1.68465 l -1.21293,-1.68461"
         style="fill:#f14625;fill-opacity:1;fill-rule:nonzero;stroke:none"
         id="path196"
         inkscape:connector-curvature="0" />
      <path
         d="m 186.84349,995.54067 c 0,0 0.069,3.7062 2.29164,4.0431 2.22317,0.337 2.62748,-3.8409 2.49271,-4.5822 l -4.78435,0.5391"
         style="fill:#fbc364;fill-opacity:1;fill-rule:nonzero;stroke:none"
         id="path198"
         inkscape:connector-curvature="0" />
      <path
         d="m 163.45869,967.97691 c 0,0 -2.98543,0.069 -2.18921,3.86629 0.79569,3.79785 3.28409,3.47815 3.28409,3.47815 0,0 -1.14447,-5.60265 -1.09488,-7.34444"
         style="fill:#fbc364;fill-opacity:1;fill-rule:nonzero;stroke:none"
         id="path200"
         inkscape:connector-curvature="0" />
      <path
         d="m 214.70213,967.97691 c 0,0 2.98597,0.069 2.18921,3.86629 -0.79568,3.79785 -3.28462,3.47815 -3.28462,3.47815 0,0 1.14501,-5.60265 1.09541,-7.34444"
         style="fill:#fbc364;fill-opacity:1;fill-rule:nonzero;stroke:none"
         id="path202"
         inkscape:connector-curvature="0" />
      <path
         d="m 168.93845,965.05832 c -1.30673,0 -2.07276,-0.0354 -2.07276,-0.0354 l 0.89864,-3.23772 c 1.19299,0.0367 2.34501,0.0545 3.46144,0.0545 20.58266,-4.3e-4 28.35352,-5.9644 28.35352,-5.9644 -7.15145,8.43067 -24.62847,9.18323 -30.64084,9.18323"
         style="fill:#f89c39;fill-opacity:1;fill-rule:nonzero;stroke:none"
         id="path322"
         inkscape:connector-curvature="0" />
      <path
         d="m 213.18246,973.37527 c 0,0 -9.13635,-3.17843 -12.35358,-13.22418 0.16873,-0.0414 0.34231,-0.0798 0.51859,-0.11377 1.76388,3.76658 5.44472,9.35362 12.25925,11.22639 0,0 -0.20054,1.79673 -0.42426,2.11156 m -12.71207,-14.46786 c -0.20431,-0.79784 -0.37143,-1.6345 -0.49596,-2.5132 0,0 0.0183,0.0728 0.0571,0.20865 0.10135,0.35363 0.34232,1.13474 0.76119,2.16546 -0.10566,0.0437 -0.21294,0.0895 -0.32237,0.13909"
         style="fill:#f89c39;fill-opacity:1;fill-rule:nonzero;stroke:none"
         id="path324"
         inkscape:connector-curvature="0" />
      <path
         d="m 200.82888,960.15109 c -0.12938,-0.40323 -0.24906,-0.81781 -0.35849,-1.24368 0.10943,-0.0496 0.21671,-0.0954 0.32237,-0.13909 0.15849,0.3903 0.34285,0.81673 0.55471,1.269 -0.17628,0.0341 -0.34986,0.0722 -0.51859,0.11377"
         style="fill:#e72723;fill-opacity:1;fill-rule:nonzero;stroke:none"
         id="path326"
         inkscape:connector-curvature="0" />
      <path
         d="m 187.93945,998.92667 c -3.47816,-0.097 -6.54607,-1.2345 -8.92503,-2.5127 0.0738,-0.3649 0.13639,-0.7083 0.1876,-1.021 2.7353,1.0113 5.37733,1.4652 7.828,1.5639 0.1504,0.6679 0.42156,1.4334 0.90943,1.9698 m 2.81939,-0.1553 c 0.37897,-0.5574 0.61347,-1.3148 0.74663,-2.0124 2.38274,-0.3035 4.45065,-0.8808 6.06466,-1.4593 0.0431,0.2793 0.097,0.5973 0.16388,0.9429 -2.40807,1.4426 -4.75308,2.2194 -6.97517,2.5288"
         style="fill:#29161d;fill-opacity:1;fill-rule:nonzero;stroke:none"
         id="path328"
         inkscape:connector-curvature="0" />
      <path
         d="m 179.01442,996.41397 c -3.22964,-1.7353 -5.19297,-3.7293 -5.19297,-3.7293 1.81347,1.1709 3.61616,2.0555 5.38057,2.7083 -0.0512,0.3127 -0.11375,0.6561 -0.1876,1.021"
         style="fill:#298b5f;fill-opacity:1;fill-rule:nonzero;stroke:none"
         id="path330"
         inkscape:connector-curvature="0" />
      <path
         d="m 197.73401,996.24257 c -0.0669,-0.3456 -0.12075,-0.6636 -0.16388,-0.9429 2.35902,-0.8447 3.75255,-1.6916 3.75255,-1.6916 -1.20701,1.055 -2.40485,1.9251 -3.58867,2.6345"
         style="fill:#298b5f;fill-opacity:1;fill-rule:nonzero;stroke:none"
         id="path332"
         inkscape:connector-curvature="0" />
      <path
         d="m 188.41707,998.93307 c -0.16011,0 -0.31913,0 -0.47762,-0.01 -0.48787,-0.5364 -0.75903,-1.3019 -0.90943,-1.9698 0.35633,0.015 0.70835,0.022 1.05606,0.022 1.19622,0 2.34069,-0.081 3.41939,-0.2194 -0.13316,0.6976 -0.36766,1.455 -0.74663,2.0124 -0.7973,0.1111 -1.57843,0.1623 -2.34177,0.1617"
         style="fill:#f89c39;fill-opacity:1;fill-rule:nonzero;stroke:none"
         id="path334"
         inkscape:connector-curvature="0" />
      <path
         d="m 203.20892,1007.5617 c 0,0 -1.53746,-1.3633 -1.28517,-6.6339 0,0 0.30135,0.048 0.74178,0.048 1.12721,0 3.16548,-0.3137 3.39567,-2.54503 0,0 0.74177,4.45933 -2.85228,9.13103"
         style="fill:#257555;fill-opacity:1;fill-rule:nonzero;stroke:none"
         id="path336"
         inkscape:connector-curvature="0" />
      <path
         d="m 174.27428,1011.7617 c -2.94662,-2.3801 -4.34446,-8.0469 -4.34446,-8.0469 1.06846,0.6388 2.00269,0.8059 2.68786,0.8059 0.75202,0 1.20377,-0.201 1.20377,-0.201 l 0.45283,7.442"
         style="fill:#257555;fill-opacity:1;fill-rule:nonzero;stroke:none"
         id="path338"
         inkscape:connector-curvature="0" />
      <path
         d="m 216.18892,1010.9493 c -0.29542,-1.3526 -1.00647,-1.8954 -1.00647,-1.8954 -1.54339,1.4081 -3.26521,1.8948 -4.91049,1.8948 -3.69324,0 -6.99565,-2.456 -6.99565,-2.456 1.73853,-1.3197 3.26791,-5.0722 3.26791,-5.0722 3.10241,1.2102 5.91803,1.6905 8.43715,1.6905 9.7094,0 14.97945,-7.14333 14.97945,-7.14333 -3.16656,10.86893 -13.7719,12.98163 -13.7719,12.98163"
         style="fill:#e72723;fill-opacity:1;fill-rule:nonzero;stroke:none"
         id="path340"
         inkscape:connector-curvature="0" />
      <path
         d="m 169.04465,1003.4205 c -5.89162,-7.65123 -7.90994,-18.67973 -7.90994,-18.67973 2.80376,4.7169 7.53258,6.8733 7.53258,6.8733 -1.5229,7.1428 0.37736,11.80643 0.37736,11.80643"
         style="fill:#e72723;fill-opacity:1;fill-rule:nonzero;stroke:none"
         id="path342"
         inkscape:connector-curvature="0" />
      <path
         d="m 184.68825,1034.774 -2.45875,-0.5213 -0.2841,-2.2733 c 0,0 1.43396,0.904 2.2415,0.904 0.0302,0 0.0598,0 0.0879,0 l 0.41348,1.8949"
         style="fill:#1f2f3b;fill-opacity:1;fill-rule:nonzero;stroke:none"
         id="path344"
         inkscape:connector-curvature="0" />
      <path
         d="m 206.95823,1032.6899 -1.42156,-1.4216 1.84743,-1.0404 1.42102,1.2307 -1.84689,1.2313"
         style="fill:#1f2f3b;fill-opacity:1;fill-rule:nonzero;stroke:none"
         id="path346"
         inkscape:connector-curvature="0" />
      <path
         d="m 215.94525,967.97691 c -0.15364,-0.0868 -0.40269,-0.15526 -0.66415,-0.20809 -0.17304,-3.56548 -0.93045,-8.62206 -1.44312,-10.16974 0.94663,-0.6814 1.47924,-1.20487 1.47924,-1.20487 1.41401,4.50297 0.62803,11.5827 0.62803,11.5827"
         style="fill:#e72723;fill-opacity:1;fill-rule:nonzero;stroke:none"
         id="path348"
         inkscape:connector-curvature="0" />
      <path
         d="m 213.80833,970.05021 c -6.44902,-1.01023 -11.00318,-9.58322 -11.00318,-9.58322 0.76388,0.14176 1.50889,0.20537 2.23072,0.20537 3.85658,0 7.04417,-1.80808 8.80211,-3.07328 0.51267,1.54768 1.27008,6.60426 1.44312,10.16974 -0.5132,-0.10242 -1.07762,-0.14447 -1.07762,-0.14447 l -0.39515,2.42586"
         style="fill:#e72723;fill-opacity:1;fill-rule:nonzero;stroke:none"
         id="path350"
         inkscape:connector-curvature="0" />
      <path
         d="m 160.52555,968.74835 c -0.0367,0 -0.0507,-0.0349 -0.0388,-0.1132 0.13477,-0.87655 0.64798,-6.40161 0.64798,-6.40161 -0.32022,-10.32556 5.01237,-15.76757 5.01237,-15.76757 0,0 -2.37788,3.2846 -0.95471,6.23661 -0.65498,0.3159 -1.06522,0.52722 -1.12506,0.5876 -0.40431,0.40431 -1.61724,6.60375 -1.61724,11.30992 0,0.8232 0.0695,1.64744 0.18436,2.44635 -0.28679,0.1817 -0.56388,0.39785 -0.81886,0.61348 -0.64367,0.54395 -1.14447,1.08842 -1.29002,1.08842"
         style="fill:#e72723;fill-opacity:1;fill-rule:nonzero;stroke:none"
         id="path352"
         inkscape:connector-curvature="0" />
      <path
         d="m 165.08995,967.2206 c -0.32614,-0.46792 -0.7159,-0.64905 -1.12937,-0.64905 -0.43181,0 -0.88949,0.19838 -1.32614,0.4749 -0.11483,-0.79891 -0.18437,-1.62315 -0.18437,-2.44635 0,-4.70617 1.21293,-10.90561 1.61724,-11.30992 0.0598,-0.0604 0.47008,-0.2717 1.12507,-0.5876 0.43773,0.90782 1.23503,1.78384 2.57195,2.52346 2.1973,1.21509 6.90402,1.58814 11.85332,1.58758 7.8528,0 16.31421,-0.93852 16.31421,-0.93852 -5.13043,4.08731 -17.07971,4.7164 -23.95353,4.7164 -3.05821,0 -5.11264,-0.12451 -5.11264,-0.12451 l -1.77574,6.75361"
         style="fill:#e72723;fill-opacity:1;fill-rule:nonzero;stroke:none"
         id="path354"
         inkscape:connector-curvature="0" />
      <path
         d="m 186.85212,995.72077 c -13.81449,-1.089 -18.18483,-11.87655 -18.18483,-11.87655 0,0 4.71373,10.23665 20.40854,10.23665 15.69373,0 20.40799,-11.25818 20.40799,-11.25818 0,0 -4.21561,11.58218 -17.84304,12.87058 0.0183,-0.3116 0.0113,-0.558 -0.0129,-0.6917 l -4.78435,0.5391 c 0,0 8.6e-4,0.066 0.009,0.1801"
         style="fill:#f89c39;fill-opacity:1;fill-rule:nonzero;stroke:none"
         id="path390"
         inkscape:connector-curvature="0" />
      <path
         d="m 189.13513,995.80917 c -0.78868,0 -1.54878,-0.031 -2.28301,-0.088 -0.007,-0.1143 -0.009,-0.1801 -0.009,-0.1801 l 4.78434,-0.5391 c 0.0242,0.1337 0.0313,0.3801 0.0129,0.6917 -0.80269,0.075 -1.63719,0.1159 -2.50564,0.1159"
         style="fill:#f89c39;fill-opacity:1;fill-rule:nonzero;stroke:none"
         id="path392"
         inkscape:connector-curvature="0" />
    </g>
    <g
       transform="matrix(0.36668469,-0.20535249,-0.20535249,-0.36668469,26.036854,1154.5958)"
       id="g5948">
      <path
         d="m 363.349,492.669 -87.722,17.853 0,-88.887 82.701,-15.936 c 2.146,-3.008 6.187,-5.023 10.972,-5.023 4.791,0 8.831,2.015 10.981,5.023 l 82.681,11.737 0,93.086 -87.718,-17.853 -1.383,0 c -0.785,-0.81 -2.354,0 -4.561,0 -2.213,0 -3.785,-0.81 -4.564,0 l -1.387,0"
         style="fill:#f7984e;fill-opacity:1;fill-rule:nonzero;stroke:none"
         id="path128"
         inkscape:connector-curvature="0" />
      <path
         d="m 362.122,402.414 -36.819,9.649 33.025,-6.364 c 0.936,-1.312 2.233,-2.435 3.794,-3.285"
         style="fill:#bd3771;fill-opacity:1;fill-rule:nonzero;stroke:none"
         id="path130"
         inkscape:connector-curvature="0" />
      <path
         d="m 369.3,400.676 0,0 c -0.23,0 -0.451,0.026 -0.679,0.036 l -6.499,1.702 c -1.561,0.85 -2.858,1.973 -3.794,3.285 l -33.025,6.364 -36.938,9.679 -5.901,9.166 c 8.621,0.721 18.803,4.906 29.274,10.824 11.262,-1.304 23.412,-1.752 34.307,-3.936 8.517,-1.643 13.872,-4.108 17.236,-6.508 l 0,-27.053 12.254,0 0,27.693 c 3.395,2.191 8.531,4.37 16.294,5.868 21.936,4.398 48.958,1.756 63.579,13.233 l 0,57.955 7.554,1.538 0,-93.086 -82.681,-11.737 c -2.15,-3.008 -6.19,-5.023 -10.981,-5.023"
         style="fill:#b72829;fill-opacity:1;fill-rule:nonzero;stroke:none"
         id="path132"
         inkscape:connector-curvature="0" />
      <path
         d="m 363.281,404.235 12.2543,0 0,44.8129 -12.2543,0 0,-44.8129 z"
         style="fill:#ce3425;fill-opacity:1;fill-rule:nonzero;stroke:none"
         id="path134"
         inkscape:connector-curvature="0" />
      <path
         d="m 370.855,402.268 c -0.921,-0.789 -5.516,0 -5.516,0.655 0,0.655 -2.101,5.778 -2.101,5.778 0,0 -0.916,3.544 2.232,4.201 l 4.597,0.263 3.544,-1.182 1.574,-0.789 -0.393,-2.493 -3.937,-6.433"
         style="fill:#ce3425;fill-opacity:1;fill-rule:nonzero;stroke:none"
         id="path136"
         inkscape:connector-curvature="0" />
      <path
         d="m 368.937,410.214 0,6.107 c 0,0 -0.961,9.675 -22.892,13.909 -21.938,4.396 -48.957,1.756 -63.581,13.231 l 0,-7.04 c 14.624,-11.476 41.643,-8.833 63.581,-13.233 13.874,-2.68 19.353,-7.534 21.507,-10.739"
         style="fill:#817e98;fill-opacity:1;fill-rule:nonzero;stroke:none"
         id="path138"
         inkscape:connector-curvature="0" />
      <path
         d="m 368.937,423.889 0,70.678 c 0,0 -0.961,9.71 -22.892,14.712 -21.938,5.171 -48.957,3.477 -63.581,15.464 l 0,-73.714 c 14.624,-11.477 41.643,-8.835 63.581,-13.233 21.931,-4.231 22.892,-13.907 22.892,-13.907"
         style="fill:#e1e5eb;fill-opacity:1;fill-rule:nonzero;stroke:none"
         id="path140"
         inkscape:connector-curvature="0" />
      <path
         d="m 368.937,404.699 0,6.108 c 0,0 -0.961,8.627 -22.892,12.858 -21.938,4.399 -48.957,1.756 -63.581,13.231 l 0,-5.989 c 14.624,-11.473 41.643,-8.833 63.581,-13.231 13.874,-2.68 19.353,-7.536 21.507,-10.74"
         style="fill:#b2afc6;fill-opacity:1;fill-rule:nonzero;stroke:none"
         id="path142"
         inkscape:connector-curvature="0" />
      <path
         d="m 368.937,419.665 0,6.105 c 0,0 -0.961,9.678 -22.892,13.911 -21.938,4.397 -48.957,1.755 -63.581,13.233 l 0,-7.041 c 14.624,-11.475 41.643,-8.832 63.581,-13.232 13.874,-2.679 19.353,-7.533 21.507,-10.74"
         style="fill:#817e98;fill-opacity:1;fill-rule:nonzero;stroke:none"
         id="path144"
         inkscape:connector-curvature="0" />
      <path
         d="m 368.937,423.606 0,6.105 c 0,0 -0.961,9.675 -22.892,13.91 -21.938,4.397 -48.957,1.754 -63.581,13.229 l 0,-7.038 c 14.624,-11.475 41.643,-8.832 63.581,-13.232 13.874,-2.681 19.353,-7.534 21.507,-10.739"
         style="fill:#b2afc6;fill-opacity:1;fill-rule:nonzero;stroke:none"
         id="path146"
         inkscape:connector-curvature="0" />
      <path
         d="m 368.937,413.101 0,6.107 c 0,0 -0.961,9.675 -22.892,13.909 -21.938,4.399 -48.957,1.755 -63.581,13.232 l 0,-5.988 c 14.624,-11.477 41.643,-8.835 63.581,-13.233 13.874,-2.68 19.353,-7.535 21.507,-10.741"
         style="fill:#b2afc6;fill-opacity:1;fill-rule:nonzero;stroke:none"
         id="path148"
         inkscape:connector-curvature="0" />
      <path
         d="m 368.935,410.214 0,6.107 c 0,0 0.96,9.675 22.895,13.909 21.935,4.397 48.957,1.753 63.578,13.231 l 0,-7.04 c -14.621,-11.476 -41.643,-8.833 -63.578,-13.233 -13.877,-2.68 -19.356,-7.534 -21.51,-10.739"
         style="fill:#817e98;fill-opacity:1;fill-rule:nonzero;stroke:none"
         id="path150"
         inkscape:connector-curvature="0" />
      <path
         d="m 368.935,423.889 0,70.678 c 0,0 0.96,9.71 22.894,14.712 21.936,5.171 48.958,3.477 63.579,15.464 l 0,-73.714 c -14.621,-11.477 -41.643,-8.835 -63.579,-13.233 -21.934,-4.231 -22.894,-13.907 -22.894,-13.907"
         style="fill:#ffffff;fill-opacity:1;fill-rule:nonzero;stroke:none"
         id="path152-3"
         inkscape:connector-curvature="0" />
      <path
         d="m 368.935,404.699 0,6.108 c 0,0 0.96,8.627 22.895,12.858 21.935,4.399 48.957,1.756 63.578,13.231 l 0,-5.989 c -14.621,-11.473 -41.643,-8.833 -63.578,-13.231 -13.877,-2.68 -19.356,-7.536 -21.51,-10.74"
         style="fill:#b2afc6;fill-opacity:1;fill-rule:nonzero;stroke:none"
         id="path154-6"
         inkscape:connector-curvature="0" />
      <path
         d="m 368.935,419.665 0,6.105 c 0,0 0.96,9.678 22.895,13.911 21.935,4.397 48.957,1.755 63.578,13.233 l 0,-7.041 c -14.621,-11.475 -41.643,-8.833 -63.578,-13.232 -13.877,-2.679 -19.356,-7.533 -21.51,-10.74"
         style="fill:#817e98;fill-opacity:1;fill-rule:nonzero;stroke:none"
         id="path156-7"
         inkscape:connector-curvature="0" />
      <path
         d="m 368.935,423.606 0,6.105 c 0,0 0.96,9.675 22.895,13.91 21.935,4.397 48.957,1.754 63.578,13.229 l 0,-7.038 c -14.621,-11.475 -41.643,-8.832 -63.578,-13.232 -13.877,-2.681 -19.356,-7.534 -21.51,-10.739"
         style="fill:#b2afc6;fill-opacity:1;fill-rule:nonzero;stroke:none"
         id="path158-5"
         inkscape:connector-curvature="0" />
      <path
         d="m 368.935,413.101 0,6.107 c 0,0 0.96,9.675 22.895,13.909 21.935,4.398 48.957,1.755 63.578,13.232 l 0,-5.988 c -14.621,-11.478 -41.643,-8.835 -63.578,-13.233 -13.877,-2.68 -19.356,-7.535 -21.51,-10.741"
         style="fill:#b2afc6;fill-opacity:1;fill-rule:nonzero;stroke:none"
         id="path160-3"
         inkscape:connector-curvature="0" />
      <path
         d="m 379.929,408.9 c 0,-5.725 -4.799,-10.367 -10.714,-10.367 -5.921,0 -10.719,4.641 -10.719,10.367 0,5.723 4.798,10.363 10.719,10.363 5.915,0 10.714,-4.64 10.714,-10.363"
         style="fill:#ae1d3f;fill-opacity:1;fill-rule:nonzero;stroke:none"
         id="path162-5"
         inkscape:connector-curvature="0" />
      <path
         d="m 363.349,407.329 -87.722,17.074 0,-6.967 82.701,-15.938 c 2.146,-3.007 6.187,-5.024 10.972,-5.024 4.791,0 8.831,2.017 10.981,5.024 l 82.681,15.938 0,6.967 -87.718,-17.074 -1.383,-2.24 c -0.785,-0.809 -2.354,-1.665 -4.561,-1.665 -2.213,0 -3.785,0.859 -4.564,1.669 l -1.387,2.236"
         style="fill:#ed3f31;fill-opacity:1;fill-rule:nonzero;stroke:none"
         id="path164-6"
         inkscape:connector-curvature="0" />
      <path
         d="m 375.489,494.315 -1.093,1.517 c 3.51,2.529 8.906,5.11 17.226,7.007 l -0.006,-0.002 c 2.228,0.524 4.503,0.977 6.809,1.384 l 0.325,-1.841 c -2.28,-0.402 -4.521,-0.848 -6.707,-1.362 l -0.006,-0.002 c -8.134,-1.854 -13.288,-4.351 -16.548,-6.701 l 0,0"
         style="fill:#a2a8bd;fill-opacity:1;fill-rule:nonzero;stroke:none"
         id="path166-2"
         inkscape:connector-curvature="0" />
      <path
         d="m 375.489,487.75 -1.093,1.517 c 3.514,2.532 8.913,5.081 17.222,7.006 10.241,2.375 21.491,3.298 32.04,4.794 l 0.262,-1.851 c -10.622,-1.503 -21.827,-2.43 -31.879,-4.763 -8.132,-1.884 -13.296,-4.355 -16.552,-6.703"
         style="fill:#c0c2e0;fill-opacity:1;fill-rule:nonzero;stroke:none"
         id="path168-9"
         inkscape:connector-curvature="0" />
      <path
         d="m 385.773,486.148 0,0 m 10e-4,0 -0.294,0.887 -0.293,0.888 c 1.921,0.635 4.058,1.238 6.431,1.786 9.336,2.164 19.507,3.123 29.223,4.408 9.715,1.281 18.97,2.895 26.429,6.277 l 0.771,-1.703 c -7.785,-3.521 -17.193,-5.134 -26.955,-6.427 -9.761,-1.289 -19.881,-2.25 -29.046,-4.376 -2.321,-0.536 -4.402,-1.124 -6.266,-1.74"
         style="fill:#c0c2e0;fill-opacity:1;fill-rule:nonzero;stroke:none"
         id="path170-1"
         inkscape:connector-curvature="0" />
      <path
         d="m 375.489,481.187 -1.093,1.516 c 2.51,1.809 5.982,3.627 10.79,5.22 l 0.294,-0.888 0.294,-0.887 0,0 c 0,0 0,0 -10e-4,0 l 0,0 c -4.66,-1.544 -7.957,-3.284 -10.284,-4.961"
         style="fill:#c0c2e0;fill-opacity:1;fill-rule:nonzero;stroke:none"
         id="path172-2"
         inkscape:connector-curvature="0" />
      <path
         d="m 375.489,474.623 -1.093,1.517 c 3.514,2.531 8.913,5.078 17.222,7.006 9.336,2.163 19.507,3.123 29.223,4.407 9.715,1.281 18.97,2.894 26.429,6.275 l 0.771,-1.703 c -7.785,-3.52 -17.193,-5.132 -26.955,-6.425 -9.761,-1.288 -19.881,-2.249 -29.045,-4.375 -8.132,-1.886 -13.296,-4.354 -16.552,-6.702"
         style="fill:#c0c2e0;fill-opacity:1;fill-rule:nonzero;stroke:none"
         id="path174-7"
         inkscape:connector-curvature="0" />
      <path
         d="m 375.489,468.06 -1.093,1.517 c 3.514,2.53 8.913,5.077 17.222,7.004 9.336,2.164 19.507,3.124 29.223,4.408 9.715,1.281 18.97,2.895 26.429,6.276 l 0.771,-1.703 c -7.785,-3.521 -17.193,-5.133 -26.955,-6.426 -9.761,-1.288 -19.881,-2.249 -29.045,-4.376 -8.132,-1.885 -13.296,-4.353 -16.552,-6.7"
         style="fill:#c0c2e0;fill-opacity:1;fill-rule:nonzero;stroke:none"
         id="path176-0"
         inkscape:connector-curvature="0" />
      <path
         d="m 375.489,461.496 -1.093,1.516 c 3.514,2.531 8.913,5.08 17.223,7.006 l 0.422,-1.821 c -8.132,-1.884 -13.296,-4.354 -16.552,-6.701"
         style="fill:#a2a8bd;fill-opacity:1;fill-rule:nonzero;stroke:none"
         id="path178-9"
         inkscape:connector-curvature="0" />
      <path
         d="m 375.489,454.931 0,0 m 0,0 -1.092,1.517 c 3.513,2.53 8.912,5.079 17.221,7.005 9.336,2.164 19.507,3.123 29.223,4.408 9.715,1.28 18.97,2.894 26.429,6.275 l 0.771,-1.703 c -7.785,-3.521 -17.193,-5.133 -26.955,-6.425 -9.761,-1.289 -19.881,-2.249 -29.045,-4.376 -8.132,-1.884 -13.296,-4.355 -16.552,-6.701"
         style="fill:#c0c2e0;fill-opacity:1;fill-rule:nonzero;stroke:none"
         id="path180-3"
         inkscape:connector-curvature="0" />
      <path
         d="m 375.489,448.366 -1.093,1.517 c 3.514,2.531 8.913,5.079 17.222,7.006 9.336,2.164 19.507,3.124 29.223,4.408 9.715,1.281 18.97,2.895 26.429,6.277 l 0.771,-1.703 c -7.785,-3.522 -17.193,-5.134 -26.955,-6.427 -9.761,-1.288 -19.881,-2.249 -29.045,-4.376 -8.132,-1.885 -13.296,-4.355 -16.552,-6.702"
         style="fill:#c0c2e0;fill-opacity:1;fill-rule:nonzero;stroke:none"
         id="path182-6"
         inkscape:connector-curvature="0" />
      <path
         d="m 362.038,494.316 c -3.254,2.349 -8.412,4.847 -16.541,6.7 l -0.005,10e-4 -0.002,10e-4 c -9.156,2.159 -19.275,3.12 -29.038,4.4 -9.764,1.285 -19.176,2.88 -26.964,6.401 l 0.77,1.703 c 7.461,-3.381 16.72,-4.978 26.437,-6.25 9.719,-1.277 19.892,-2.236 29.224,-4.435 8.311,-1.896 13.707,-4.476 17.213,-7.006 l -1.094,-1.515 m -16.119,8.521 0,0"
         style="fill:#b8bcdc;fill-opacity:1;fill-rule:nonzero;stroke:none"
         id="path184-0"
         inkscape:connector-curvature="0" />
      <path
         d="m 327.81,497.401 c -13.635,1.747 -27.536,2.981 -38.322,7.853 l 0.77,1.703 c 10.337,-4.69 24.114,-5.963 37.789,-7.702 l 0,0 -0.237,-1.854"
         style="fill:#b8bcdc;fill-opacity:1;fill-rule:nonzero;stroke:none"
         id="path186-6"
         inkscape:connector-curvature="0" />
      <path
         d="m 362.038,481.187 c -3.251,2.348 -8.417,4.817 -16.544,6.701 -9.167,2.127 -19.287,3.088 -29.049,4.376 -9.762,1.293 -19.171,2.906 -26.957,6.427 l 0.77,1.703 c 7.462,-3.382 16.717,-4.995 26.432,-6.276 9.716,-1.285 19.888,-2.245 29.226,-4.409 8.305,-1.926 13.706,-4.473 17.216,-7.006 l 10e-4,0 -1.095,-1.516"
         style="fill:#b8bcdc;fill-opacity:1;fill-rule:nonzero;stroke:none"
         id="path188-2"
         inkscape:connector-curvature="0" />
      <path
         d="m 362.038,474.624 c -3.251,2.347 -8.417,4.816 -16.544,6.701 -9.167,2.126 -19.287,3.087 -29.048,4.375 -9.763,1.293 -19.172,2.905 -26.958,6.425 l 0.77,1.703 c 7.462,-3.381 16.717,-4.994 26.432,-6.275 9.716,-1.284 19.888,-2.244 29.226,-4.407 8.305,-1.928 13.706,-4.475 17.216,-7.007 l -1.094,-1.515"
         style="fill:#b8bcdc;fill-opacity:1;fill-rule:nonzero;stroke:none"
         id="path190-6"
         inkscape:connector-curvature="0" />
      <path
         d="m 362.039,468.061 c -3.252,2.346 -8.418,4.815 -16.546,6.699 -9.166,2.127 -19.286,3.088 -29.048,4.376 -9.762,1.293 -19.171,2.905 -26.957,6.427 l 0.77,1.703 c 7.462,-3.382 16.717,-4.996 26.432,-6.277 9.716,-1.284 19.888,-2.244 29.226,-4.408 8.305,-1.927 13.706,-4.473 17.216,-7.004 l -1.093,-1.516"
         style="fill:#b8bcdc;fill-opacity:1;fill-rule:nonzero;stroke:none"
         id="path192-1"
         inkscape:connector-curvature="0" />
      <path
         d="m 362.039,461.496 c -3.252,2.347 -8.418,4.817 -16.546,6.701 -9.166,2.127 -19.286,3.088 -29.047,4.375 -9.763,1.292 -19.172,2.904 -26.958,6.426 l 0.771,1.703 c 7.461,-3.382 16.716,-4.995 26.431,-6.275 9.716,-1.285 19.888,-2.243 29.226,-4.408 8.305,-1.926 13.706,-4.474 17.216,-7.006 l -1.093,-1.516"
         style="fill:#b8bcdc;fill-opacity:1;fill-rule:nonzero;stroke:none"
         id="path194-8"
         inkscape:connector-curvature="0" />
      <path
         d="m 326.206,464.781 c -13.118,1.652 -26.353,2.971 -36.718,7.653 l 0.77,1.703 c 9.934,-4.505 23.038,-5.859 36.181,-7.501 l -0.233,-1.855"
         style="fill:#99a1b7;fill-opacity:1;fill-rule:nonzero;stroke:none"
         id="path196-7"
         inkscape:connector-curvature="0" />
      <path
         d="m 362.038,448.366 c -3.251,2.347 -8.417,4.818 -16.545,6.702 -9.166,2.127 -19.286,3.088 -29.048,4.376 -9.762,1.293 -19.171,2.905 -26.957,6.427 l 0.77,1.703 c 7.462,-3.382 16.717,-4.996 26.432,-6.277 9.716,-1.284 19.888,-2.244 29.226,-4.408 8.305,-1.927 13.706,-4.475 17.216,-7.007 l -1.094,-1.516"
         style="fill:#b8bcdc;fill-opacity:1;fill-rule:nonzero;stroke:none"
         id="path198-9"
         inkscape:connector-curvature="0" />
    </g>
  </g>
</svg>
