<?xml version="1.0" encoding="iso-8859-1"?>
<!-- Generator: Adobe Illustrator 19.0.0, SVG Export Plug-In . SVG Version: 6.00 Build 0)  -->
<svg version="1.1" id="Layer_1" xmlns="http://www.w3.org/2000/svg" xmlns:xlink="http://www.w3.org/1999/xlink" x="0px" y="0px"
	 viewBox="0 0 459.445 459.445" style="enable-background:new 0 0 459.445 459.445;" xml:space="preserve">
<rect x="219.723" y="35.807" style="fill:#59595A;" width="20" height="98.316"/>
<rect x="229.723" y="35.807" style="opacity:0.4;fill:#5B5B5F;enable-background:new    ;" width="10" height="98.316"/>
<path style="fill:#C8523B;" d="M229.723,445.832c0,0-43.643,49.011-135.483-38.964C4.248,320.664-17.508,100.134,131.757,95.16
	c78.082-2.602,97.966,38.964,97.966,38.964s19.884-41.566,97.966-38.964c149.265,4.974,127.509,225.504,37.517,311.709
	C273.366,494.843,229.723,445.832,229.723,445.832z"/>
<path style="fill:#ABCB57;" d="M319.087,70.51c-26.068,26.068-70.468,23.934-70.468,23.934s-2.134-44.399,23.934-70.468
	s70.468-23.934,70.468-23.934S345.155,44.442,319.087,70.51z"/>
<path style="opacity:0.3;fill:#5B5B5F;enable-background:new    ;" d="M343.021,0.042l-94.402,94.402
	c0,0,44.399,2.134,70.468-23.935S343.021,0.042,343.021,0.042z"/>
<path style="opacity:0.3;fill:#5B5B5F;enable-background:new    ;" d="M327.689,95.16c-78.082-2.602-97.966,38.964-97.966,38.964
	v311.709c0,0,43.643,49.011,135.483-38.964C455.198,320.664,476.954,100.134,327.689,95.16z"/>
<g>
</g>
<g>
</g>
<g>
</g>
<g>
</g>
<g>
</g>
<g>
</g>
<g>
</g>
<g>
</g>
<g>
</g>
<g>
</g>
<g>
</g>
<g>
</g>
<g>
</g>
<g>
</g>
<g>
</g>
</svg>
