<?xml version="1.0" encoding="iso-8859-1"?>
<!-- Generator: Adobe Illustrator 19.0.0, SVG Export Plug-In . SVG Version: 6.00 Build 0)  -->
<svg version="1.1" id="Layer_1" xmlns="http://www.w3.org/2000/svg" xmlns:xlink="http://www.w3.org/1999/xlink" x="0px" y="0px"
	 viewBox="0 0 460 460" style="enable-background:new 0 0 460 460;" xml:space="preserve">
<rect x="71.875" style="fill:#59595A;" width="316.25" height="460"/>
<rect x="110.238" y="38.363" style="fill:#90C5FF;" width="239.524" height="84.105"/>
<rect x="237.246" y="254.626" style="fill:#FFFFFF;" width="49.013" height="31.616"/>
<rect x="300.749" y="254.626" style="fill:#FFFFFF;" width="49.013" height="31.616"/>
<rect x="110.238" y="254.626" style="fill:#FFFFFF;" width="49.013" height="31.616"/>
<rect x="173.742" y="254.626" style="fill:#FFFFFF;" width="49.013" height="31.616"/>
<rect x="237.246" y="325.865" style="fill:#FFFFFF;" width="49.013" height="31.616"/>
<rect x="300.749" y="325.865" style="fill:#FFFFFF;" width="49.013" height="31.616"/>
<rect x="110.238" y="325.865" style="fill:#FFFFFF;" width="49.013" height="31.616"/>
<rect x="173.742" y="325.865" style="fill:#FFFFFF;" width="49.013" height="31.616"/>
<rect x="237.246" y="397.105" style="fill:#ABCB57;" width="49.013" height="31.616"/>
<rect x="300.749" y="397.105" style="fill:#C8523B;" width="49.013" height="31.616"/>
<rect x="110.238" y="397.105" style="opacity:0.4;fill:#211915;enable-background:new    ;" width="49.013" height="31.616"/>
<rect x="173.742" y="397.105" style="opacity:0.4;fill:#211915;enable-background:new    ;" width="49.013" height="31.616"/>
<rect x="237.246" y="183.386" style="fill:#FFFFFF;" width="49.013" height="31.616"/>
<rect x="300.749" y="183.386" style="fill:#FFFFFF;" width="49.013" height="31.616"/>
<rect x="110.238" y="183.386" style="fill:#E5C400;" width="112.517" height="31.616"/>
<rect x="110.238" y="80.416" style="opacity:0.3;fill:#5B5B5F;enable-background:new    ;" width="239.524" height="42.053"/>
<g>
</g>
<g>
</g>
<g>
</g>
<g>
</g>
<g>
</g>
<g>
</g>
<g>
</g>
<g>
</g>
<g>
</g>
<g>
</g>
<g>
</g>
<g>
</g>
<g>
</g>
<g>
</g>
<g>
</g>
</svg>
