<?xml version="1.0" encoding="iso-8859-1"?>
<!-- Generator: Adobe Illustrator 19.0.0, SVG Export Plug-In . SVG Version: 6.00 Build 0)  -->
<svg version="1.1" id="Layer_1" xmlns="http://www.w3.org/2000/svg" xmlns:xlink="http://www.w3.org/1999/xlink" x="0px" y="0px"
	 viewBox="0 0 460 460" style="enable-background:new 0 0 460 460;" xml:space="preserve">
<rect x="24.262" style="fill:#59595A;" width="411.476" height="150.82"/>
<rect x="61.967" y="37.705" style="fill:#90C5FF;" width="336.066" height="75.41"/>
<rect x="24.262" y="150.82" style="fill:#D8D9DD;" width="411.476" height="309.18"/>
<rect x="61.967" y="188.525" style="fill:#ABCB57;" width="149.181" height="102.275"/>
<rect x="248.852" y="188.525" style="fill:#ABCB57;" width="149.181" height="102.275"/>
<rect x="61.967" y="320.02" style="fill:#ABCB57;" width="149.181" height="102.275"/>
<rect x="248.852" y="320.02" style="fill:#ABCB57;" width="149.181" height="102.275"/>
<path style="fill:#FFFFFF;" d="M159.222,232.176v14.972h-14.278v15.665h-16.635v-15.665h-14.417v-14.972h14.417v-15.665h16.635
	v15.665H159.222z"/>
<path style="fill:#FFFFFF;" d="M302.441,248.049v-16.773h42.004v16.773H302.441z"/>
<path style="fill:#FFFFFF;" d="M162.411,385.228l-11.783,11.506l-14.278-14.278l-14.278,14.278l-11.367-11.645l14.001-14.14
	l-13.586-13.724l11.783-11.507l13.586,13.586l13.724-13.725l11.367,11.646l-13.585,13.724L162.411,385.228z"/>
<path style="fill:#FFFFFF;" d="M295.51,378.574v-14.833h55.866v14.833H295.51z M315.61,354.315v-17.744h15.664v17.744H315.61z
	 M315.61,405.745v-17.883h15.664v17.883H315.61z"/>
<path style="fill:#FFFFFF;" d="M273.131,100.989c0-13.163,3.272-18.927,13.021-23.693c6.119-2.988,12.808-5.194,12.808-11.883
	c0-4.269-2.704-6.973-7.4-6.973c-5.407,0-9.747,3.344-12.237,6.048l-5.978-6.261c2.562-2.989,9.393-8.396,19.425-8.396
	c11.028,0,17.005,6.333,17.005,15.44c0,8.68-5.763,12.309-12.451,15.725c-7.115,3.557-10.744,6.475-10.744,11.384h23.267v8.609
	C309.847,100.989,273.131,100.989,273.131,100.989z"/>
<path style="fill:#FFFFFF;" d="M339.946,71.888v7.684h-7.328v8.04h-8.538v-8.04h-7.4v-7.684h7.4v-8.041h8.538v8.041H339.946z"/>
<path style="fill:#FFFFFF;" d="M376.022,92.38v8.609h-28.674V92.38h9.89V59.508c-1.564,2.206-7.684,6.119-11.526,6.119v-8.823
	c5.123,0,11.385-6.546,11.526-6.83h9.748V92.38H376.022z"/>
<rect x="230" style="opacity:0.3;fill:#5B5B5F;enable-background:new    ;" width="205.738" height="460"/>
<g>
</g>
<g>
</g>
<g>
</g>
<g>
</g>
<g>
</g>
<g>
</g>
<g>
</g>
<g>
</g>
<g>
</g>
<g>
</g>
<g>
</g>
<g>
</g>
<g>
</g>
<g>
</g>
<g>
</g>
</svg>
