<?xml version="1.0" encoding="iso-8859-1"?>
<!-- Generator: Adobe Illustrator 19.0.0, SVG Export Plug-In . SVG Version: 6.00 Build 0)  -->
<svg version="1.1" id="Layer_1" xmlns="http://www.w3.org/2000/svg" xmlns:xlink="http://www.w3.org/1999/xlink" x="0px" y="0px"
	 viewBox="0 0 460 460" style="enable-background:new 0 0 460 460;" xml:space="preserve">
<rect y="34.634" style="fill:#C8523B;" width="460" height="150.503"/>
<rect y="185.137" style="fill:#EDEEF0;" width="460" height="263.381"/>
<rect x="70.09" y="11.482" style="fill:#59595A;" width="37.626" height="83.93"/>
<rect x="352.284" y="11.482" style="fill:#59595A;" width="37.626" height="83.93"/>
<rect y="151.271" style="opacity:0.4;fill:#5B5B5F;enable-background:new    ;" width="460" height="33.866"/>
<path style="fill:#59595A;" d="M92.052,248.77c-1.132-1.257-6.662-4.399-12.005-4.399c-4.714,0-7.102,1.823-7.102,5.028
	c0,3.645,3.456,4.588,10.182,6.348c8.799,2.263,14.33,5.028,14.33,13.199c0,9.616-7.73,13.262-16.53,13.262
	c-6.662,0-13.575-2.137-18.729-5.782l3.834-7.479c1.509,1.508,8.233,5.468,15.021,5.468c4.714,0,7.165-1.634,7.165-4.588
	c0-3.959-4.588-5.091-11.564-6.977c-8.485-2.325-12.633-5.216-12.633-12.067c0-9.113,7.228-14.016,16.278-14.016
	c6.222,0,11.69,2.326,15.587,4.965L92.052,248.77z"/>
<path style="fill:#59595A;" d="M101.163,265.425c0-9.365,6.662-17.221,17.41-17.221c10.747,0,17.158,7.982,17.158,16.907
	c0,1.068-0.063,2.137-0.188,2.829h-25.455c0.44,5.154,4.337,8.233,8.736,8.233c3.331,0,6.725-1.76,7.794-4.462l7.228,2.011
	c-2.389,5.028-8.045,8.61-15.336,8.61C107.889,282.332,101.163,274.539,101.163,265.425z M127.058,262.471
	c-0.439-4.902-4.022-8.17-8.61-8.17c-4.525,0-8.107,3.268-8.485,8.17H127.058z"/>
<path style="fill:#59595A;" d="M149.305,275.921v19.169h-8.422v-46.32h7.354v5.657c2.451-3.834,6.41-6.222,11.376-6.222
	c8.861,0,15.398,7.668,15.398,16.97c0,9.616-6.034,17.158-14.456,17.158C155.464,282.332,151.441,279.818,149.305,275.921z
	 M166.399,265.174c0-5.531-3.896-9.805-9.113-9.805c-3.205,0-6.851,2.325-7.981,5.531v7.73c1.508,3.708,4.902,6.537,8.484,6.537
	C162.88,275.167,166.399,270.391,166.399,265.174z"/>
<path style="fill:#59595A;" d="M200.399,280.007c-2.263,1.005-5.782,2.262-9.365,2.262c-4.65,0-8.548-2.262-8.548-8.107v-18.918
	h-4.273v-6.474h4.273v-10.685h8.422v10.685h6.977v6.474h-6.977v16.09c0,2.326,1.446,3.206,3.206,3.206s3.582-0.754,4.588-1.194
	L200.399,280.007z"/>
<path style="fill:#59595A;" d="M202.598,265.425c0-9.365,6.662-17.221,17.41-17.221c10.747,0,17.158,7.982,17.158,16.907
	c0,1.068-0.063,2.137-0.188,2.829h-25.455c0.44,5.154,4.337,8.233,8.736,8.233c3.331,0,6.726-1.76,7.794-4.462l7.228,2.011
	c-2.389,5.028-8.045,8.61-15.336,8.61C209.323,282.332,202.598,274.539,202.598,265.425z M228.492,262.471
	c-0.439-4.902-4.022-8.17-8.61-8.17c-4.525,0-8.107,3.268-8.485,8.17H228.492z"/>
<path style="fill:#59595A;" d="M293.478,281.704h-8.422v-18.478c0-5.217-1.948-7.605-5.154-7.605c-3.268,0-6.536,2.828-7.793,6.914
	v19.169h-8.422v-18.478c0-5.28-1.948-7.605-5.091-7.605c-3.269,0-6.6,2.765-7.856,6.851v19.232h-8.422V248.77h7.604v6.097
	c2.451-4.274,6.851-6.662,12.256-6.662c5.468,0,8.422,3.08,9.302,6.977c2.64-4.525,6.914-6.977,12.131-6.977
	c8.107,0,9.867,6.599,9.867,12.947L293.478,281.704L293.478,281.704z"/>
<path style="fill:#59595A;" d="M308.056,275.984v5.719h-7.354v-45.881h8.422v18.73c2.325-3.96,6.222-6.348,11.25-6.348
	c8.61,0,14.456,7.856,14.456,17.158c0,9.491-6.6,16.97-15.398,16.97C314.403,282.332,310.318,279.881,308.056,275.984z
	 M326.219,265.425c0-5.342-3.582-10.056-8.61-10.056c-3.708,0-6.913,2.828-8.484,6.411v7.856c1.131,3.331,4.776,5.531,7.981,5.531
	C322.448,275.167,326.219,270.705,326.219,265.425z"/>
<path style="fill:#59595A;" d="M338.474,265.425c0-9.365,6.662-17.221,17.41-17.221c10.747,0,17.158,7.982,17.158,16.907
	c0,1.068-0.063,2.137-0.188,2.829h-25.455c0.44,5.154,4.337,8.233,8.736,8.233c3.331,0,6.725-1.76,7.794-4.462l7.228,2.011
	c-2.389,5.028-8.045,8.61-15.336,8.61C345.199,282.332,338.474,274.539,338.474,265.425z M364.368,262.471
	c-0.439-4.902-4.022-8.17-8.61-8.17c-4.525,0-8.107,3.268-8.485,8.17H364.368z"/>
<path style="fill:#59595A;" d="M397.803,256.061c-5.091,0.063-9.428,2.011-11.188,5.719v19.924h-8.422V248.77h7.73v7.04
	c2.263-4.462,6.159-7.542,10.182-7.542c0.88,0,1.32,0.063,1.697,0.125L397.803,256.061L397.803,256.061z"/>
<path style="fill:#C8523B;" d="M259.449,402.218v16.729h-55.718v-16.729h19.219v-63.875c-3.043,4.286-14.933,11.89-22.398,11.89
	v-17.144c9.953,0,22.121-12.72,22.398-13.273h18.941v82.402H259.449z"/>
<polygon style="opacity:0.3;fill:#5B5B5F;enable-background:new    ;" points="389.91,34.634 389.91,11.482 352.284,11.482 
	352.284,34.634 230,34.634 230,448 460,448 460,34.634 "/>
<g>
</g>
<g>
</g>
<g>
</g>
<g>
</g>
<g>
</g>
<g>
</g>
<g>
</g>
<g>
</g>
<g>
</g>
<g>
</g>
<g>
</g>
<g>
</g>
<g>
</g>
<g>
</g>
<g>
</g>
</svg>
