<?xml version="1.0" encoding="iso-8859-1"?>
<!-- Generator: Adobe Illustrator 19.0.0, SVG Export Plug-In . SVG Version: 6.00 Build 0)  -->
<svg version="1.1" id="Layer_1" xmlns="http://www.w3.org/2000/svg" xmlns:xlink="http://www.w3.org/1999/xlink" x="0px" y="0px"
	 viewBox="0 0 460 460" style="enable-background:new 0 0 460 460;" xml:space="preserve">
<path style="fill:#D8D9DD;" d="M427.964,422.803l-130.602-247.74V73.39c16.238-4.013,28.279-18.671,28.279-36.148l0,0
	C325.642,16.673,308.969,0,288.401,0H171.599c-20.568,0-37.241,16.673-37.241,37.241l0,0c0,17.477,12.042,32.136,28.279,36.148
	v101.674L32.036,422.803C23.13,439.696,35.379,460,54.475,460H230h175.525C424.621,460,436.87,439.696,427.964,422.803z"/>
<path style="fill:#ABCB57;" d="M97.4,390.018l90.896-172.422h83.408L362.6,390.018c6.572,12.466-2.467,27.449-16.559,27.449H113.96
	C99.868,417.467,90.829,402.484,97.4,390.018z"/>
<circle style="fill:#FFFFFF;" cx="230" cy="296.599" r="26.398"/>
<circle style="fill:#FFFFFF;" cx="178.432" cy="369.26" r="12.623"/>
<circle style="fill:#FFFFFF;" cx="293.219" cy="360.294" r="17.167"/>
<rect x="162.637" y="73.39" style="opacity:0.3;fill:#5B5B5F;enable-background:new    ;" width="134.725" height="20"/>
<path style="opacity:0.3;fill:#5B5B5F;enable-background:new    ;" d="M230,0h58.401c20.568,0,37.241,16.673,37.241,37.241l0,0
	c0,17.477-12.042,32.136-28.279,36.148v101.674l130.602,247.74c8.905,16.893-3.343,37.197-22.44,37.197H230V74.482V0z"/>
<g>
</g>
<g>
</g>
<g>
</g>
<g>
</g>
<g>
</g>
<g>
</g>
<g>
</g>
<g>
</g>
<g>
</g>
<g>
</g>
<g>
</g>
<g>
</g>
<g>
</g>
<g>
</g>
<g>
</g>
</svg>
