<?xml version="1.0" encoding="iso-8859-1"?>
<!-- Generator: Adobe Illustrator 19.0.0, SVG Export Plug-In . SVG Version: 6.00 Build 0)  -->
<svg version="1.1" id="Layer_1" xmlns="http://www.w3.org/2000/svg" xmlns:xlink="http://www.w3.org/1999/xlink" x="0px" y="0px"
	 viewBox="0 0 460 460" style="enable-background:new 0 0 460 460;" xml:space="preserve">
<rect x="52.273" y="26.134" style="fill:#59595A;" width="407.727" height="407.731"/>
<rect y="26.134" style="fill:#59595A;" width="41.82" height="407.731"/>
<path style="fill:#FFFFFF;" d="M59.625,226.583c0-104.285,84.555-188.841,188.833-188.841c104.281,0,188.838,84.555,188.838,188.841
	c0,104.301-84.556,188.834-188.838,188.834C144.181,415.416,59.625,330.883,59.625,226.583z"/>
<path style="fill:#59595A;" d="M248.458,285.378c-32.411,0-58.778-26.375-58.778-58.795c0-32.41,26.368-58.778,58.778-58.778
	s58.778,26.368,58.778,58.778C307.236,259.003,280.868,285.378,248.458,285.378z M248.458,177.804
	c-26.896,0-48.778,21.882-48.778,48.778c0,26.905,21.882,48.795,48.778,48.795s48.778-21.89,48.778-48.795
	C297.236,199.686,275.354,177.804,248.458,177.804z"/>
<path style="fill:#59595A;" d="M234.391,226.583c0-7.78,6.31-14.071,14.068-14.071c7.78,0,14.071,6.291,14.071,14.071
	c0,7.773-6.291,14.087-14.071,14.087C240.7,240.669,234.391,234.355,234.391,226.583z"/>
<path style="fill:#90C5FF;" d="M208.478,69.845c-50.803,12.925-92.009,49.898-110.752,98.054l74.977,32.402
	c8.599-24.703,28.977-43.964,54.358-50.985L208.478,69.845z"/>
<rect x="42.046" y="26.135" style="opacity:0.4;fill:#5B5B5F;enable-background:new    ;" width="10" height="407.73"/>
<g>
</g>
<g>
</g>
<g>
</g>
<g>
</g>
<g>
</g>
<g>
</g>
<g>
</g>
<g>
</g>
<g>
</g>
<g>
</g>
<g>
</g>
<g>
</g>
<g>
</g>
<g>
</g>
<g>
</g>
</svg>
