<?xml version="1.0" encoding="iso-8859-1"?>
<!-- Generator: Adobe Illustrator 19.0.0, SVG Export Plug-In . SVG Version: 6.00 Build 0)  -->
<svg version="1.1" id="Layer_1" xmlns="http://www.w3.org/2000/svg" xmlns:xlink="http://www.w3.org/1999/xlink" x="0px" y="0px"
	 viewBox="0 0 460.001 460.001" style="enable-background:new 0 0 460.001 460.001;" xml:space="preserve">
<path style="fill:#E5C400;" d="M1.35,437.277c0,0-4.663,10.019,3.345,18.028c8.01,8.008,18.028,3.347,18.028,3.347l87.552-41.408
	l-67.518-67.519L1.35,437.277z"/>
<rect x="29.322" y="354.193" transform="matrix(0.7071 0.7071 -0.7071 0.7071 288.549 46.0853)" style="fill:#C8523B;" width="118.645" height="34.318"/>
<path style="fill:#E5C400;" d="M58.835,317.271L363.22,12.885c22.554-22.554,45.385-12.601,65.603,7.618L439.5,31.178
	c20.215,20.217,30.17,43.049,7.616,65.603L142.731,401.167L58.835,317.271z"/>
<path style="fill:#FFFFFF;" d="M241.765,166.821c-45.835,45.837-71.485,94.505-57.289,108.702
	c14.201,14.199,62.867-11.452,108.702-57.289c45.837-45.837,71.488-94.503,57.289-108.7
	C336.271,95.336,287.604,120.986,241.765,166.821z"/>
<path style="fill:#5F95DD;" d="M363.22,12.886c2.483-2.483,4.968-4.549,7.453-6.273l82.716,82.716
	c-1.724,2.485-3.791,4.971-6.273,7.453l-6.861,6.861l-83.896-83.896L363.22,12.886z"/>
<rect x="68.867" y="322.107" transform="matrix(0.7071 0.7071 -0.7071 0.7071 272.1719 6.5421)" style="fill:#5F95DD;" width="118.645" height="19.409"/>
<path style="opacity:0.3;fill:#5B5B5F;enable-background:new    ;" d="M118.463,425.432l-8.188-8.188l-87.552,41.408
	c0,0-10.017,4.66-18.027-3.346L434.161,25.84l5.339,5.338c18.533,18.535,28.422,39.269,12.562,59.97
	c-0.038,0.049-0.077,0.098-0.115,0.148c-0.43,0.556-0.87,1.112-1.337,1.668c-0.167,0.2-0.348,0.4-0.52,0.6
	c-0.365,0.423-0.726,0.846-1.113,1.268c-0.594,0.65-1.211,1.299-1.861,1.948l-6.861,6.861L142.731,401.167L118.463,425.432z"/>
<g>
</g>
<g>
</g>
<g>
</g>
<g>
</g>
<g>
</g>
<g>
</g>
<g>
</g>
<g>
</g>
<g>
</g>
<g>
</g>
<g>
</g>
<g>
</g>
<g>
</g>
<g>
</g>
<g>
</g>
</svg>
