<?xml version="1.0" encoding="iso-8859-1"?>
<!-- Generator: Adobe Illustrator 19.0.0, SVG Export Plug-In . SVG Version: 6.00 Build 0)  -->
<svg version="1.1" id="Layer_1" xmlns="http://www.w3.org/2000/svg" xmlns:xlink="http://www.w3.org/1999/xlink" x="0px" y="0px"
	 viewBox="0 0 460 460" style="enable-background:new 0 0 460 460;" xml:space="preserve">
<rect x="82.997" style="fill:#EDEEF0;" width="294.005" height="390.028"/>
<rect x="121.559" y="33.562" style="opacity:0.4;fill:#5B5B5F;enable-background:new    ;" width="117.613" height="10"/>
<rect x="121.559" y="75.006" style="opacity:0.4;fill:#5B5B5F;enable-background:new    ;" width="216.882" height="10"/>
<rect x="121.559" y="116.449" style="opacity:0.4;fill:#5B5B5F;enable-background:new    ;" width="216.882" height="10"/>
<rect x="121.559" y="157.894" style="opacity:0.4;fill:#5B5B5F;enable-background:new    ;" width="216.882" height="10"/>
<rect x="121.559" y="199.337" style="opacity:0.4;fill:#5B5B5F;enable-background:new    ;" width="216.882" height="10"/>
<rect x="121.559" y="240.781" style="opacity:0.4;fill:#5B5B5F;enable-background:new    ;" width="216.882" height="10"/>
<rect x="121.559" y="282.225" style="opacity:0.4;fill:#5B5B5F;enable-background:new    ;" width="216.882" height="10"/>
<rect x="121.559" y="323.669" style="opacity:0.4;fill:#5B5B5F;enable-background:new    ;" width="216.882" height="10"/>
<polygon style="fill:#C8523B;" points="334.04,460 303.542,436.763 271.591,460 271.591,378.671 334.04,378.671 "/>
<path style="fill:#E5C400;" d="M346.186,363.932c0,24.224-19.64,43.87-43.873,43.87c-24.233,0-43.873-19.646-43.873-43.87
	c0-24.23,19.64-43.876,43.873-43.876C326.546,320.057,346.186,339.702,346.186,363.932z"/>
<path style="opacity:0.3;fill:#5B5B5F;enable-background:new    ;" d="M346.186,363.932c0-24.23-19.64-43.875-43.873-43.875v58.614
	v29.131v29.489l0.726-0.528L333.538,460v-65.26C341.357,386.818,346.186,375.939,346.186,363.932z"/>
<g>
</g>
<g>
</g>
<g>
</g>
<g>
</g>
<g>
</g>
<g>
</g>
<g>
</g>
<g>
</g>
<g>
</g>
<g>
</g>
<g>
</g>
<g>
</g>
<g>
</g>
<g>
</g>
<g>
</g>
</svg>
