<?xml version="1.0" encoding="iso-8859-1"?>
<!-- Generator: Adobe Illustrator 19.0.0, SVG Export Plug-In . SVG Version: 6.00 Build 0)  -->
<svg version="1.1" id="Layer_1" xmlns="http://www.w3.org/2000/svg" xmlns:xlink="http://www.w3.org/1999/xlink" x="0px" y="0px"
	 viewBox="0 0 460 460" style="enable-background:new 0 0 460 460;" xml:space="preserve">
<rect y="138.074" style="opacity:0.44;fill:#D8D9DD;enable-background:new    ;" width="460" height="106.084"/>
<rect y="217.748" style="opacity:0.3;fill:#5B5B5F;enable-background:new    ;" width="460" height="26.409"/>
<polygon style="fill:#B8554E;" points="256.91,321.924 230.626,294.325 203.09,321.924 203.09,138.074 256.91,138.074 "/>
<path style="fill:#E5C400;" d="M273.117,191.118c0,23.806-19.302,43.114-43.117,43.114s-43.117-19.307-43.117-43.114
	c0-23.812,19.302-43.12,43.117-43.12S273.117,167.306,273.117,191.118z"/>
<path style="opacity:0.3;fill:#5B5B5F;enable-background:new    ;" d="M256.91,157.43v-19.356H230v156.879l0.626-0.627l26.285,27.6
	v-97.123c9.878-7.901,16.206-20.054,16.206-33.683C273.117,177.486,266.788,165.332,256.91,157.43z"/>
<g>
</g>
<g>
</g>
<g>
</g>
<g>
</g>
<g>
</g>
<g>
</g>
<g>
</g>
<g>
</g>
<g>
</g>
<g>
</g>
<g>
</g>
<g>
</g>
<g>
</g>
<g>
</g>
<g>
</g>
</svg>
