<?xml version="1.0" encoding="iso-8859-1"?>
<!-- Generator: Adobe Illustrator 19.0.0, SVG Export Plug-In . SVG Version: 6.00 Build 0)  -->
<svg version="1.1" id="Layer_1" xmlns="http://www.w3.org/2000/svg" xmlns:xlink="http://www.w3.org/1999/xlink" x="0px" y="0px"
	 viewBox="0 0 460 460" style="enable-background:new 0 0 460 460;" xml:space="preserve">
<path style="fill:#D8D9DD;" d="M381.063,27.455c0-15.163,12.291-27.454,27.454-27.454L408.518,0H112.49
	C87.923,0,68.008,19.915,68.008,44.482v299.266c0,24.567,19.915,44.482,44.482,44.482h224.091c24.567,0,44.482-19.915,44.482-44.482
	V75.496V44.482V27.455z"/>
<path style="fill:#808083;" d="M408.518,0.001L408.518,0.001c-15.163,0-27.454,12.292-27.454,27.454v48.041h54.909V27.455
	C435.971,12.292,423.68,0.001,408.518,0.001z"/>
<path style="fill:#EDEEF0;" d="M345.53,58.002c0-12.284,9.958-22.243,22.242-22.243v-0.001H139.254
	c-19.903,0-36.038,16.135-36.038,36.038v243.547c0,19.903,16.135,36.038,36.038,36.038h170.237
	c19.903,0,36.038-16.135,36.038-36.038V58.002H345.53z"/>
<path style="fill:#808083;" d="M310.738,349.7c0-17.862,11.498-33.005,27.482-38.529H62.557c-21.279,0-38.529,17.25-38.529,38.529
	l0,0c0,21.279,17.25,38.529,38.529,38.529H338.22C322.236,382.705,310.738,367.563,310.738,349.7z"/>
<rect x="130.749" y="89.015" style="fill:#ABCB57;" width="187.249" height="20"/>
<rect x="130.749" y="160.524" style="fill:#ABCB57;" width="187.249" height="20"/>
<rect x="130.749" y="232.033" style="fill:#ABCB57;" width="187.249" height="20"/>
<polygon style="fill:#C8523B;" points="263.747,460 233.405,436.882 201.617,460 201.617,379.086 263.747,379.086 "/>
<path style="fill:#E5C400;" d="M275.832,364.423c0,24.1-19.54,43.646-43.649,43.646c-24.109,0-43.649-19.546-43.649-43.646
	c0-24.106,19.54-43.652,43.649-43.652C256.292,320.771,275.832,340.317,275.832,364.423z"/>
<path style="opacity:0.3;fill:#5B5B5F;enable-background:new    ;" d="M275.832,364.423c0-24.106-19.54-43.651-43.649-43.651v58.315
	v28.982v29.339l0.722-0.525L263.249,460v-64.926C271.027,387.191,275.832,376.369,275.832,364.423z"/>
<g>
</g>
<g>
</g>
<g>
</g>
<g>
</g>
<g>
</g>
<g>
</g>
<g>
</g>
<g>
</g>
<g>
</g>
<g>
</g>
<g>
</g>
<g>
</g>
<g>
</g>
<g>
</g>
<g>
</g>
</svg>
