<?xml version="1.0" encoding="iso-8859-1"?>
<!-- Generator: Adobe Illustrator 19.0.0, SVG Export Plug-In . SVG Version: 6.00 Build 0)  -->
<svg version="1.1" id="Layer_1" xmlns="http://www.w3.org/2000/svg" xmlns:xlink="http://www.w3.org/1999/xlink" x="0px" y="0px"
	 viewBox="0 0 467.071 467.071" style="enable-background:new 0 0 467.071 467.071;" xml:space="preserve">
<polygon style="fill:#B9BBBC;" points="240.688,443.831 219.84,368.545 204.786,368.545 183.938,443.831 134.859,443.831 
	134.859,467.071 289.766,467.071 289.766,443.831 "/>
<polygon style="opacity:0.3;fill:#5B5B5F;enable-background:new    ;" points="289.767,443.831 240.688,443.831 219.84,368.545 
	212.313,368.545 212.313,467.071 289.767,467.071 "/>
<path style="fill:#59595A;" d="M366.765,25.911l11.769-11.77L364.391,0l-37.343,37.343l14.143,14.142l11.412-11.412
	c31.267,34.688,48.376,79.102,48.376,126.149c0,50.395-19.625,97.772-55.26,133.407c-71.189,71.189-185.581,73.48-259.555,6.883
	l11.413-11.413l-14.143-14.143L46.092,318.3l14.143,14.143l11.774-11.774c39.671,36.081,89.979,54.125,140.305,54.121
	c53.428-0.005,106.874-20.345,147.549-61.019c39.412-39.412,61.117-91.813,61.117-147.549
	C420.979,113.83,401.798,64.39,366.765,25.911z"/>
<circle style="fill:#ABCB57;" cx="212.313" cy="166.221" r="159.15"/>
<path style="fill:#FFFFFF;" d="M371.462,166.161c-14.601-3.659-29.794-9.982-44.799-18.498c5.901-16.037,8.531-30.4,9.467-42.23
	c1.497-18.925-0.953-33.875-3.302-43.161c-2.537-2.935-5.193-5.801-7.979-8.587c-2.786-2.786-5.653-5.443-8.588-7.979
	c-9.286-2.349-24.235-4.798-43.161-3.302c-11.829,0.936-26.193,3.566-42.23,9.467c-8.516-15.005-14.839-30.198-18.498-44.8
	c-1.712-0.001-3.424,0.035-5.135,0.09l-4.859,1.176c3.786,15.645,10.249,31.617,19.032,47.333
	c-20.48,8.884-43.243,23.189-66.711,45.867L103.373,50.21c-1.209,1.137-2.41,2.288-3.591,3.47l-0.01,0.01
	c-1.182,1.182-2.333,2.382-3.47,3.591l51.327,51.327c-22.679,23.468-36.984,46.231-45.868,66.711
	c-15.715-8.783-31.688-15.247-47.332-19.034l-1.176,4.862c-0.054,1.711-0.09,3.422-0.09,5.133
	c14.601,3.659,29.794,9.983,44.8,18.499c-5.901,16.037-8.531,30.4-9.466,42.229C87,245.934,89.45,260.884,91.799,270.17
	c2.536,2.934,5.192,5.801,7.978,8.586c2.786,2.787,5.654,5.443,8.588,7.98c7.31,1.849,18.128,3.759,31.633,3.759
	c3.65,0,7.501-0.14,11.527-0.458c11.829-0.935,26.193-3.566,42.23-9.467c8.516,15.005,14.839,30.198,18.499,44.8
	c1.712,0.001,3.423-0.035,5.134-0.09l4.86-1.176c-3.786-15.645-10.25-31.617-19.033-47.332c20.48-8.884,43.244-23.189,66.712-45.867
	l51.327,51.327c1.211-1.138,2.413-2.291,3.596-3.475c1.184-1.183,2.337-2.385,3.475-3.596l-51.327-51.327
	c22.678-23.468,36.983-46.231,45.867-66.711c15.716,8.783,31.688,15.247,47.333,19.033l1.175-4.858
	C371.427,169.586,371.463,167.874,371.462,166.161z M273.296,52.421c19.119-1.595,34.001,1.219,42.277,3.469l-46.59,46.59
	c-12.665-13.143-23.776-27.338-32.892-41.862C250.188,55.612,262.812,53.296,273.296,52.421z M226.521,64.352
	c9.648,15.631,21.561,30.894,35.388,45.202l-49.596,49.596l-50.543-50.543C184.692,86.484,206.801,72.743,226.521,64.352z
	 M154.699,115.677l50.543,50.543l-49.596,49.596c-14.313-13.832-29.583-25.748-45.22-35.399
	C121.724,153.975,138.994,131.968,154.699,115.677z M98.466,227.796c1.054-13.332,4.006-25.965,8.222-37.811
	c14.532,9.118,28.735,20.235,41.885,32.906l-46.603,46.603C99.74,261.34,96.968,246.733,98.466,227.796z M151.331,280.02
	c-19.122,1.594-33.999-1.219-42.276-3.47l46.589-46.589c12.665,13.143,23.776,27.338,32.891,41.862
	C174.438,276.83,161.815,279.146,151.331,280.02z M198.105,268.089c-9.649-15.631-21.561-30.894-35.388-45.202l49.596-49.596
	l50.543,50.543C239.934,245.958,217.825,259.699,198.105,268.089z M269.928,216.764l-50.544-50.543l49.596-49.596
	c14.312,13.832,29.581,25.747,45.217,35.397C302.893,178.476,285.618,200.488,269.928,216.764z M326.112,105.239
	c-1.094,13.114-4.02,25.548-8.174,37.218c-14.532-9.118-28.734-20.234-41.884-32.906l46.589-46.589
	C324.894,71.24,327.707,86.118,326.112,105.239z"/>
<path style="opacity:0.3;fill:#5B5B5F;enable-background:new    ;" d="M324.849,53.685L99.777,278.757
	c62.152,62.152,162.92,62.152,225.072,0S387.001,115.837,324.849,53.685z"/>
<g>
</g>
<g>
</g>
<g>
</g>
<g>
</g>
<g>
</g>
<g>
</g>
<g>
</g>
<g>
</g>
<g>
</g>
<g>
</g>
<g>
</g>
<g>
</g>
<g>
</g>
<g>
</g>
<g>
</g>
</svg>
