<?xml version="1.0" encoding="iso-8859-1"?>
<!-- Generator: Adobe Illustrator 19.0.0, SVG Export Plug-In . SVG Version: 6.00 Build 0)  -->
<svg version="1.1" id="Layer_1" xmlns="http://www.w3.org/2000/svg" xmlns:xlink="http://www.w3.org/1999/xlink" x="0px" y="0px"
	 viewBox="0 0 460.003 460.003" style="enable-background:new 0 0 460.003 460.003;" xml:space="preserve">
<polygon style="fill:#59595A;" points="342.111,4.164 33.768,312.508 30.455,385.215 17.346,398.323 61.682,442.659 74.79,429.549 
	147.497,426.237 455.841,117.893 "/>
<path style="fill:#C8523B;" d="M6.935,457.147l-4.078-4.078c-3.205-3.205-3.778-8.195-1.383-12.042l22.473-36.104l31.134,31.134
	L18.977,458.53C15.13,460.926,10.14,460.353,6.935,457.147z"/>
<rect x="350.704" y="37.041" transform="matrix(-0.7071 -0.7071 0.7071 -0.7071 661.9222 376.3588)" style="fill:#C8523B;" width="116.408" height="28.099"/>
<path style="opacity:0.3;fill:#5B5B5F;enable-background:new    ;" d="M74.79,429.549l-13.108,13.108l-6.6-6.6L18.978,458.53
	c-3.848,2.395-8.838,1.822-12.043-1.383l-2.039-2.039L418.845,41.16l41.157,41.157l-19.869,19.869l15.708,15.708L147.497,426.237
	L74.79,429.549z"/>
<g>
</g>
<g>
</g>
<g>
</g>
<g>
</g>
<g>
</g>
<g>
</g>
<g>
</g>
<g>
</g>
<g>
</g>
<g>
</g>
<g>
</g>
<g>
</g>
<g>
</g>
<g>
</g>
<g>
</g>
</svg>
