<?xml version="1.0" encoding="iso-8859-1"?>
<!-- Generator: Adobe Illustrator 19.0.0, SVG Export Plug-In . SVG Version: 6.00 Build 0)  -->
<svg version="1.1" id="Layer_1" xmlns="http://www.w3.org/2000/svg" xmlns:xlink="http://www.w3.org/1999/xlink" x="0px" y="0px"
	 viewBox="0 0 460 460" style="enable-background:new 0 0 460 460;" xml:space="preserve">
<path style="fill:#C8523B;" d="M412.557,287.245l0.125-112.286l-10-0.011l-0.125,112.285c-6.039,2.072-10.386,7.786-10.386,14.527
	c0,8.488,6.881,15.369,15.369,15.369c8.488,0,15.369-6.881,15.369-15.369C422.91,295.031,418.578,289.327,412.557,287.245z"/>
<path style="fill:#59595A;" d="M460,162.909L230,67.567L0,162.909l122.978,50.978v134.908c0,24.101,47.915,43.638,107.022,43.638
	s107.022-19.538,107.022-43.638V213.887L460,162.909z"/>
<polygon style="opacity:0.3;fill:#211915;enable-background:new    ;" points="337.022,213.887 230,258.249 122.978,213.887 
	122.978,235.536 222.341,276.725 230,279.899 237.659,276.725 337.022,235.536 "/>
<g>
</g>
<g>
</g>
<g>
</g>
<g>
</g>
<g>
</g>
<g>
</g>
<g>
</g>
<g>
</g>
<g>
</g>
<g>
</g>
<g>
</g>
<g>
</g>
<g>
</g>
<g>
</g>
<g>
</g>
</svg>
