<?xml version="1.0" encoding="iso-8859-1"?>
<!-- Generator: Adobe Illustrator 19.0.0, SVG Export Plug-In . SVG Version: 6.00 Build 0)  -->
<svg version="1.1" id="Layer_1" xmlns="http://www.w3.org/2000/svg" xmlns:xlink="http://www.w3.org/1999/xlink" x="0px" y="0px"
	 viewBox="0 0 460 460" style="enable-background:new 0 0 460 460;" xml:space="preserve">
<path style="fill:#ABCB57;" d="M266.853,59.815C246.5,59.815,230,76.314,230,96.667c0-20.353-16.5-36.852-36.853-36.852H0v300.688
	l230,2.246l230-2.246V59.815H266.853z"/>
<path style="fill:#EDEEF0;" d="M263.256,85.376c-18.367,0-33.256,14.889-33.256,33.256c0-18.367-14.889-33.256-33.256-33.256H22.443
	v244.116h174.301c18.367,0,33.256,14.89,33.256,33.257c0-18.367,14.889-33.257,33.256-33.257h174.301V85.376H263.256z"/>
<rect x="60.184" y="118.118" style="opacity:0.4;fill:#5B5B5F;enable-background:new    ;" width="74.524" height="10"/>
<rect x="60.184" y="146.347" style="opacity:0.4;fill:#5B5B5F;enable-background:new    ;" width="132.075" height="10"/>
<rect x="60.184" y="174.577" style="opacity:0.4;fill:#5B5B5F;enable-background:new    ;" width="132.075" height="10"/>
<rect x="60.184" y="202.806" style="opacity:0.4;fill:#5B5B5F;enable-background:new    ;" width="132.075" height="10"/>
<rect x="60.184" y="231.036" style="opacity:0.4;fill:#5B5B5F;enable-background:new    ;" width="132.075" height="10"/>
<rect x="60.184" y="259.266" style="opacity:0.4;fill:#5B5B5F;enable-background:new    ;" width="132.075" height="10"/>
<rect x="60.184" y="287.495" style="opacity:0.4;fill:#5B5B5F;enable-background:new    ;" width="132.075" height="10"/>
<rect x="267.741" y="146.347" style="opacity:0.4;fill:#5B5B5F;enable-background:new    ;" width="132.075" height="10"/>
<rect x="267.741" y="118.118" style="opacity:0.4;fill:#5B5B5F;enable-background:new    ;" width="132.075" height="10"/>
<rect x="267.741" y="174.577" style="opacity:0.4;fill:#5B5B5F;enable-background:new    ;" width="132.075" height="10"/>
<rect x="267.741" y="202.806" style="opacity:0.4;fill:#5B5B5F;enable-background:new    ;" width="132.075" height="10"/>
<rect x="267.741" y="231.036" style="opacity:0.4;fill:#5B5B5F;enable-background:new    ;" width="132.075" height="10"/>
<rect x="267.741" y="259.266" style="opacity:0.4;fill:#5B5B5F;enable-background:new    ;" width="132.075" height="10"/>
<rect x="267.741" y="287.495" style="opacity:0.4;fill:#5B5B5F;enable-background:new    ;" width="132.075" height="10"/>
<path style="opacity:0.3;fill:#5B5B5F;enable-background:new    ;" d="M266.852,59.815C246.5,59.815,230,76.314,230,96.667v21.966
	v244.116l230-2.246V59.815H266.852z"/>
<polygon style="fill:#B8554E;" points="357.506,400.185 345.291,387.359 332.494,400.185 332.494,59.922 357.506,59.922 "/>
<polygon style="opacity:0.3;fill:#5B5B5F;enable-background:new    ;" points="357.506,400.185 345.291,387.359 345.291,59.922 
	357.506,59.922 "/>
<g>
</g>
<g>
</g>
<g>
</g>
<g>
</g>
<g>
</g>
<g>
</g>
<g>
</g>
<g>
</g>
<g>
</g>
<g>
</g>
<g>
</g>
<g>
</g>
<g>
</g>
<g>
</g>
<g>
</g>
</svg>
