<?xml version="1.0" encoding="iso-8859-1"?>
<!-- Generator: Adobe Illustrator 19.0.0, SVG Export Plug-In . SVG Version: 6.00 Build 0)  -->
<svg version="1.1" id="Layer_1" xmlns="http://www.w3.org/2000/svg" xmlns:xlink="http://www.w3.org/1999/xlink" x="0px" y="0px"
	 viewBox="0 0 460.001 460.001" style="enable-background:new 0 0 460.001 460.001;" xml:space="preserve">
<path style="fill:#C8523B;" d="M430.911,402c0,0,14.562,1.562,17.394-6.27c3.427-9.478,5.292-29.561,5.292-59.795
	c0-68.36-10.818-205.421-10.818-205.421h-23.737c0,0-10.818,137.061-10.818,205.421c0,30.234,1.865,50.317,5.292,59.795
	C416.349,403.562,430.911,402,430.911,402z"/>
<path style="fill:#E5C400;" d="M442.78,130.514h-23.737c0,0-0.828,10.497-2.026,27.126h27.791
	C443.609,141.012,442.78,130.514,442.78,130.514z"/>
<path style="opacity:0.4;fill:#5B5B5F;enable-background:new    ;" d="M433.822,38.842c0,0,52.785,54.55,8.446,91.672h-23.225
	c0,0-26.04-15.802-14.076-45.836C415.951,57.105,433.822,60.66,433.822,38.842z"/>
<path style="fill:#59595A;" d="M442.78,130.514h-23.737c0,0-0.17,2.155-0.467,6.057h24.672
	C442.95,132.669,442.78,130.514,442.78,130.514z"/>
<path style="fill:#D8D9DD;" d="M55.565,365.625c74.323,74.282,195.099,74.012,269.761-0.61
	c37.331-37.308,71.626-123.792,30.457-164.941c-40.967-40.943-77.273,5.445-108.649-25.913
	c-31.375-31.357,15.039-67.645-25.928-108.588c-41.171-41.147-127.701-6.87-165.031,30.439
	C-18.488,170.634-18.758,291.344,55.565,365.625z"/>
<path style="opacity:0.3;fill:#5B5B5F;enable-background:new    ;" d="M444.807,157.64c-0.586-8.128-1.083-14.786-1.438-19.475
	c-0.004-0.053-0.008-0.106-0.012-0.158c-0.028-0.37-0.055-0.73-0.082-1.074c-0.009-0.117-0.019-0.247-0.027-0.362
	c0-0.007-0.001-0.012-0.001-0.019c-0.297-3.89-0.466-6.038-0.466-6.038l0,0h-0.512c44.339-37.122-8.446-91.672-8.446-91.672
	c0,5.399-1.097,9.242-2.911,12.39V402c0.004,0,14.562,1.561,17.394-6.27c3.427-9.478,5.292-29.562,5.292-59.795
	C453.598,286.487,447.938,201.105,444.807,157.64L444.807,157.64z"/>
<circle style="fill:#E5C400;" cx="82.289" cy="183.408" r="27.405"/>
<circle style="fill:#ABCB57;" cx="162.565" cy="126.314" r="27.405"/>
<circle style="fill:#E5C400;" cx="294.468" cy="243.922" r="27.405"/>
<circle style="fill:#ABCB57;" cx="246.765" cy="330.047" r="27.405"/>
<circle style="fill:#5F95DD;" cx="149.813" cy="346.793" r="27.405"/>
<circle style="fill:#C8523B;" cx="76.614" cy="281.524" r="27.405"/>
<path style="opacity:0.3;fill:#5B5B5F;enable-background:new    ;" d="M162.565,98.908v54.811c15.136,0,27.406-12.27,27.406-27.405
	C189.971,111.178,177.701,98.908,162.565,98.908z"/>
<path style="fill:#E5C400;" d="M54.884,183.408c0,15.136,12.27,27.406,27.405,27.406v-54.811
	C67.154,156.003,54.884,168.273,54.884,183.408z"/>
<path style="opacity:0.3;fill:#5B5B5F;enable-background:new    ;" d="M82.289,156.003v54.811c15.136,0,27.405-12.27,27.405-27.406
	C109.695,168.273,97.425,156.003,82.289,156.003z"/>
<path style="opacity:0.3;fill:#5B5B5F;enable-background:new    ;" d="M294.468,216.517v54.811c15.136,0,27.405-12.27,27.405-27.406
	C321.873,228.786,309.604,216.517,294.468,216.517z"/>
<path style="opacity:0.3;fill:#5B5B5F;enable-background:new    ;" d="M246.765,302.641v54.811c15.136,0,27.405-12.27,27.405-27.406
	S261.901,302.641,246.765,302.641z"/>
<path style="opacity:0.3;fill:#5B5B5F;enable-background:new    ;" d="M177.218,346.793c0-15.073-12.169-27.299-27.218-27.401
	v54.801C165.049,374.093,177.218,361.866,177.218,346.793z"/>
<path style="opacity:0.3;fill:#5B5B5F;enable-background:new    ;" d="M76.614,254.119v54.811c15.135,0,27.405-12.27,27.405-27.405
	S91.749,254.119,76.614,254.119z"/>
<g>
</g>
<g>
</g>
<g>
</g>
<g>
</g>
<g>
</g>
<g>
</g>
<g>
</g>
<g>
</g>
<g>
</g>
<g>
</g>
<g>
</g>
<g>
</g>
<g>
</g>
<g>
</g>
<g>
</g>
</svg>
