<?xml version="1.0" encoding="iso-8859-1"?>
<!-- Generator: Adobe Illustrator 19.0.0, SVG Export Plug-In . SVG Version: 6.00 Build 0)  -->
<svg version="1.1" id="Layer_1" xmlns="http://www.w3.org/2000/svg" xmlns:xlink="http://www.w3.org/1999/xlink" x="0px" y="0px"
	 viewBox="0 0 460 460" style="enable-background:new 0 0 460 460;" xml:space="preserve">
<path style="fill:#C8523B;" d="M365.883,230.003c0,88.022,51.78,110.736,51.78,110.736L417.664,460H230H42.337l-0.001-119.26
	c0,0,51.782-22.714,51.783-110.737c-0.001-88.028-51.782-110.741-51.782-110.741L42.336,0.001L230,0h187.664v119.261
	C417.664,119.261,365.883,141.975,365.883,230.003z"/>
<rect x="215.001" y="37.933" style="fill:#D8D9DD;" width="104.982" height="384.134"/>
<path style="fill:#808083;" d="M302.553,230.002c0,17.978-14.574,32.55-32.553,32.553c-17.981-0.002-32.553-14.575-32.553-32.553
	c0-17.983,14.574-32.555,32.553-32.553C287.979,197.445,302.553,212.019,302.553,230.002z"/>
<rect x="137.362" y="37.933" style="opacity:0.3;fill:#5B5B5F;enable-background:new    ;" width="52.971" height="384.134"/>
<polygon style="opacity:0.4;fill:#5B5B5F;enable-background:new    ;" points="287.253,219.819 280.182,212.749 270,222.931 
	259.818,212.749 252.747,219.819 262.929,230.002 252.747,240.185 259.818,247.255 270,237.073 280.182,247.255 287.253,240.185 
	277.071,230.002 "/>
<rect x="190" y="37.933" style="fill:#FFFFFF;" width="25" height="384.134"/>
<g>
</g>
<g>
</g>
<g>
</g>
<g>
</g>
<g>
</g>
<g>
</g>
<g>
</g>
<g>
</g>
<g>
</g>
<g>
</g>
<g>
</g>
<g>
</g>
<g>
</g>
<g>
</g>
<g>
</g>
</svg>
