<?xml version="1.0" encoding="iso-8859-1"?>
<!-- Generator: Adobe Illustrator 19.0.0, SVG Export Plug-In . SVG Version: 6.00 Build 0)  -->
<svg version="1.1" id="Layer_1" xmlns="http://www.w3.org/2000/svg" xmlns:xlink="http://www.w3.org/1999/xlink" x="0px" y="0px"
	 viewBox="0 0 463.981 463.981" style="enable-background:new 0 0 463.981 463.981;" xml:space="preserve">
<rect x="380.906" y="202.897" transform="matrix(0.4142 -0.9102 0.9102 0.4142 41.5368 494.5498)" style="opacity:0.4;fill:#5B5B5F;enable-background:new    ;" width="48.127" height="24.219"/>
<polygon style="fill:#59595A;" points="442.416,205.607 439.476,212.068 423.025,204.582 408.972,235.465 425.423,242.951 
	422.483,249.411 433.67,254.503 453.603,210.698 "/>
<rect x="372.803" y="208.112" transform="matrix(0.4142 -0.9102 0.9102 0.4142 40.146 485.0146)" style="opacity:0.4;fill:#5B5B5F;enable-background:new    ;" width="48.127" height="6.414"/>
<path style="fill:#5F95DD;" d="M61.06,3.11C41.846,6.414,24.548,18.859,15.865,37.943S9.16,78.243,19.291,94.9L61.06,3.11z"/>
<polygon style="opacity:0.4;fill:#5B5B5F;enable-background:new    ;" points="425.965,198.121 403.921,188.09 407.843,179.471 
	60.816,0 16.786,96.76 380.066,240.513 383.988,231.894 406.032,241.925 "/>
<rect x="372.803" y="208.112" transform="matrix(0.4142 -0.9102 0.9102 0.4142 40.146 485.0146)" style="opacity:0.4;fill:#5B5B5F;enable-background:new    ;" width="48.127" height="6.414"/>
<polygon style="fill:#59595A;" points="52.241,110.79 59.406,113.625 101.53,21.056 94.685,17.516 "/>
<polygon style="fill:#59595A;" points="16.786,96.76 35.857,104.306 79.034,9.422 60.816,0 23.788,81.371 "/>
<rect x="380.906" y="202.897" transform="matrix(0.4142 -0.9102 0.9102 0.4142 41.5368 494.5498)" style="opacity:0.4;fill:#5B5B5F;enable-background:new    ;" width="48.127" height="24.219"/>
<polygon style="fill:#59595A;" points="442.416,205.607 439.476,212.068 418.661,202.595 404.607,233.479 425.423,242.951 
	422.483,249.411 433.67,254.503 453.603,210.698 "/>
<rect x="372.803" y="208.112" transform="matrix(0.4142 -0.9102 0.9102 0.4142 40.146 485.0146)" style="opacity:0.4;fill:#5B5B5F;enable-background:new    ;" width="48.127" height="6.414"/>
<path style="fill:#90C5FF;" d="M61.06,3.11C41.846,6.414,24.548,18.859,15.865,37.943S9.16,78.243,19.291,94.9L61.06,3.11z"/>
<polygon style="fill:#D8D9DD;" points="425.965,198.121 403.921,188.09 407.843,179.471 60.816,0 16.786,96.76 380.066,240.513 
	383.988,231.894 406.032,241.925 "/>
<rect x="372.803" y="208.112" transform="matrix(0.4142 -0.9102 0.9102 0.4142 40.146 485.0146)" style="opacity:0.4;fill:#5B5B5F;enable-background:new    ;" width="48.127" height="6.414"/>
<polygon style="fill:#59595A;" points="52.241,110.79 59.406,113.625 101.53,21.056 94.685,17.516 "/>
<polygon style="fill:#59595A;" points="16.786,96.76 35.857,104.306 79.034,9.422 60.816,0 23.788,81.371 "/>
<path style="opacity:0.3;fill:#5B5B5F;enable-background:new    ;" d="M15.865,37.942L15.865,37.942
	c-8.41,18.481-6.819,38.963,2.491,55.367l-1.57,3.451l35.455,14.03l5.234,2.071l322.591,127.652l3.922-8.619l22.044,10.031
	l2.94-6.46l16.451,7.486l-2.94,6.46l11.187,5.092l9.968-21.905L15.865,37.942z"/>
<path style="fill:#59595A;" d="M354.382,463.98l18.348-7.961l-129.895-299.33L112.941,456.02l18.348,7.961l45.24-104.253h56.306V460
	h20V359.728h56.306L354.382,463.98z M185.208,339.728l47.627-109.753v109.753H185.208z M252.835,339.728V229.974l47.627,109.754
	H252.835z"/>
<circle style="fill:#E5C400;" cx="242.835" cy="181.81" r="27.78"/>
<circle style="opacity:0.4;fill:#5B5B5F;enable-background:new    ;" cx="242.835" cy="181.81" r="15.648"/>
<g>
</g>
<g>
</g>
<g>
</g>
<g>
</g>
<g>
</g>
<g>
</g>
<g>
</g>
<g>
</g>
<g>
</g>
<g>
</g>
<g>
</g>
<g>
</g>
<g>
</g>
<g>
</g>
<g>
</g>
</svg>
